<svg width="45" height="45" viewBox="0 0 45 45" fill="none" xmlns="http://www.w3.org/2000/svg">
<g clip-path="url(#clip0_6_18382)">
<g clip-path="url(#clip1_6_18382)">
<g clip-path="url(#clip2_6_18382)">
<path d="M0.5 0.220215H44.5V44.2202H0.5V0.220215Z" fill="#00008B"/>
<path d="M22.5 0.220215V2.97021L14.3359 11.2202L22.5 19.2554V22.2202H19.6211L11.4141 14.1421L3.42188 22.2202H0.5V19.2983L8.49219 11.2632L0.5 3.3999V0.220215H3.16406L11.4141 8.29834L19.4062 0.220215H22.5Z" fill="white"/>
<path d="M8.40625 14.1421L8.87891 15.603L2.30469 22.2202H0.5V22.0913L8.40625 14.1421ZM13.7344 13.6265L16.0547 13.9702L22.5 20.2866V22.2202L13.7344 13.6265ZM22.5 0.220215L14.25 8.64209L14.0781 6.75146L20.5234 0.220215H22.5ZM0.5 0.263184L8.79297 8.38428L6.25781 8.04053L0.5 2.32568V0.263184Z" fill="#FF0000"/>
<path d="M8.0625 0.220215V22.2202H14.9375V0.220215H8.0625ZM0.5 7.78271V14.6577H22.5V7.78271H0.5Z" fill="white"/>
<path d="M0.5 9.15771V13.2827H22.5V9.15771H0.5ZM9.4375 0.220215V22.2202H13.5625V0.220215H9.4375Z" fill="#FF0000"/>
<path d="M17.8596 34.8358L13.9236 35.2999L14.3189 39.2444L11.5002 36.4601L8.66426 39.2272L9.08535 35.2827L5.14941 34.7843L8.49238 32.653L6.42988 29.2671L10.1768 30.5562L11.5346 26.8265L12.8666 30.5647L16.6221 29.3015L14.5338 32.6702L17.8682 34.8272L17.8596 34.8358ZM36.9979 35.5233L35.2361 35.7468L35.4252 37.5085L34.1533 36.271L32.89 37.5171L33.0619 35.7554L31.3002 35.5491L32.7869 34.5866L31.8502 33.0827L33.5346 33.6413L34.1275 31.9655L34.7377 33.6327L36.4135 33.0569L35.4939 34.5694L36.9979 35.5233ZM36.1643 25.4515L36.3963 24.3343L35.5541 23.5608L36.6885 23.4319L37.1611 22.3921L37.6338 23.4319L38.7682 23.5608L37.926 24.3343L38.158 25.4515L37.1611 24.8843L36.1643 25.4515ZM28.9369 20.2952L27.1924 20.4843L27.3471 22.2288L26.1096 20.9827L24.8377 22.1944L25.0439 20.4499L23.308 20.2179L24.7947 19.2897L23.8924 17.7858L25.551 18.3702L26.1697 16.7288L26.7455 18.3874L28.4127 17.846L27.476 19.3327L28.9369 20.2952ZM44.0447 17.4765L42.2486 17.7085L42.4463 19.5046L41.1486 18.2413L39.8596 19.5132L40.04 17.7085L38.2439 17.5022L39.765 16.514L38.8111 14.9757L40.5299 15.5515L41.1314 13.8499L41.7502 15.5515L43.4604 14.9585L42.515 16.5054L44.0447 17.4765ZM36.9893 10.3007L35.2104 10.4983L35.3736 12.2858L34.1104 11.014L32.8127 12.2515L33.0189 10.4726L31.24 10.2319L32.7611 9.28662L31.8416 7.74834L33.5346 8.34131L34.1619 6.66553L34.7463 8.3585L36.4478 7.7999L35.4939 9.3124L36.9893 10.3007Z" fill="white"/>
</g>
</g>
<g clip-path="url(#clip3_6_18382)">
<path fill-rule="evenodd" clip-rule="evenodd" d="M0.380859 0.400146H95.3809V4.2478H0.380859V0.400146ZM0.380859 8.09546H95.3809V11.9431H0.380859V8.09546ZM0.380859 15.781H95.3809V19.6384H0.380859V15.781ZM0.380859 23.4763H95.3809V27.324H0.380859V23.4763ZM0.380859 31.1716H95.3809V35.0193H0.380859V31.1716ZM0.380859 38.8572H95.3809V42.7048H0.380859V38.8572ZM0.380859 46.5525H95.3809V50.4001H0.380859V46.5525Z" fill="#BD3D44"/>
<path fill-rule="evenodd" clip-rule="evenodd" d="M0.380859 4.2478H95.3809V8.09546H0.380859V4.2478ZM0.380859 11.9431H95.3809V15.781H0.380859V11.9431ZM0.380859 19.6287H95.3809V23.4763H0.380859V19.6287ZM0.380859 27.324H95.3809V31.1619H0.380859V27.324ZM0.380859 35.0193H95.3809V38.8572H0.380859V35.0193ZM0.380859 42.7048H95.3809V46.5525H0.380859V42.7048Z" fill="white"/>
<path fill-rule="evenodd" clip-rule="evenodd" d="M0.380859 0.400146H38.3789V27.324H0.380859V0.400146Z" fill="#192F5D"/>
<path fill-rule="evenodd" clip-rule="evenodd" d="M3.53516 1.55249L3.92578 2.62671H5L4.11133 3.28101L4.45312 4.32593L3.53516 3.67163L2.68555 4.32593L3.03711 3.28101L2.10938 2.62671H3.26172L3.53516 1.55249ZM9.88281 1.55249L10.2246 2.62671H11.3379L10.4199 3.28101L10.8105 4.32593L9.88281 3.67163L8.95508 4.32593L9.3457 3.28101L8.41797 2.62671H9.53125L9.88281 1.55249ZM16.2305 1.55249L16.5723 2.62671H17.6855L16.7676 3.28101L17.1582 4.32593L16.2305 3.67163L15.3027 4.32593L15.6934 3.28101L14.7656 2.62671H15.8789L16.2305 1.55249ZM22.5391 1.55249L22.9199 2.62671H23.9941L23.1152 3.28101L23.457 4.32593L22.5391 3.67163L21.6504 4.32593L21.9922 3.28101L21.0742 2.62671H22.2266L22.5391 1.55249ZM28.8867 1.55249L29.2285 2.62671H30.3418L29.4238 3.28101L29.8047 4.32593L28.8379 3.67163L27.959 4.32593L28.3008 3.28101L27.3828 2.62671H28.4961L28.8867 1.55249ZM35.2344 1.55249L35.5762 2.62671H36.6894L35.7617 3.28101L36.1523 4.32593L35.2246 3.67163L34.3066 4.32593L34.6973 3.28101L33.7695 2.62671H34.8828L35.2344 1.55249ZM6.71875 4.2478L7.07031 5.32202H8.19336L7.26562 5.97632L7.65625 7.01147L6.72852 6.35718L5.80078 7.01147L6.19141 5.97632L5.26367 5.32202H6.37695L6.71875 4.2478ZM13.0371 4.2478L13.4277 5.32202H14.502L13.6133 5.97632L13.9551 7.01147L13.0371 6.35718L12.1582 7.01147L12.5 5.97632L11.5723 5.32202H12.7246L13.0371 4.2478ZM19.3848 4.2478L19.7266 5.32202H20.8398L19.9219 5.97632L20.3125 7.01147L19.3848 6.35718L18.457 7.01147L18.8477 5.97632L17.9199 5.32202H19.0332L19.3848 4.2478ZM25.7324 4.2478L26.0742 5.32202H27.1875L26.2695 5.97632L26.6504 7.01147L25.7227 6.35718L24.8047 7.01147L25.1953 5.97632L24.2676 5.32202H25.3809L25.7324 4.2478ZM32.0312 4.2478L32.4219 5.32202H33.457L32.5781 5.97632L32.9199 7.01147L31.9922 6.35718L31.1133 7.01147L31.4551 5.97632L30.5371 5.32202H31.6895L32.0312 4.2478ZM3.57422 6.94312L3.87695 8.01733H5.03906L4.11133 8.67163L4.45312 9.70679L3.53516 9.05249L2.68555 9.70679L3.03711 8.67163L2.10938 8.01733H3.26172L3.57422 6.94312ZM9.88281 6.94312L10.2246 8.01733H11.3379L10.459 8.67163L10.8008 9.70679L9.88281 9.05249L9.00391 9.70679L9.3457 8.67163L8.41797 8.01733H9.53125L9.88281 6.94312ZM16.2305 6.94312L16.5723 8.01733H17.6855L16.7676 8.67163L17.1582 9.70679L16.2305 9.05249L15.3027 9.70679L15.6934 8.67163L14.7656 8.01733H15.8789L16.2305 6.94312ZM22.5391 6.94312L22.9199 8.01733H23.9941L23.1152 8.67163L23.457 9.70679L22.5391 9.05249L21.6504 9.70679L21.9922 8.67163L21.084 8.01733H22.2363L22.5391 6.94312ZM28.8867 6.94312L29.2285 8.01733H30.3418L29.4629 8.67163L29.8047 9.70679L28.8769 9.05249L27.998 9.70679L28.3398 8.67163L27.4316 8.01733H28.5449L28.8867 6.94312ZM35.2344 6.94312L35.5762 8.01733H36.6894L35.7617 8.67163L36.1523 9.70679L35.2246 9.05249L34.3066 9.70679L34.6973 8.67163L33.7695 8.01733H34.8828L35.2344 6.94312ZM6.71875 9.62866L7.07031 10.7029H8.19336L7.26562 11.3572L7.65625 12.4021L6.72852 11.7478L5.80078 12.4021L6.19141 11.3572L5.26367 10.7126H6.37695L6.71875 9.62866ZM13.0371 9.62866L13.4277 10.7029H14.502L13.6133 11.3572L13.9551 12.4119L13.0371 11.7576L12.1582 12.4119L12.5 11.3669L11.5723 10.7224H12.7246L13.0371 9.62866ZM19.3848 9.62866L19.7266 10.7029H20.8398L19.9609 11.3572L20.3027 12.4119L19.3848 11.7576L18.4961 12.4119L18.8379 11.3669L17.9199 10.7224H19.0332L19.3848 9.62866ZM25.7324 9.62866L26.0742 10.7029H27.1875L26.2695 11.3572L26.6504 12.4119L25.7227 11.7576L24.8047 12.4119L25.1953 11.3669L24.2676 10.7224H25.3809L25.7324 9.62866ZM32.0312 9.62866L32.4219 10.7029H33.457L32.5781 11.3572L32.9199 12.4021L31.9922 11.7478L31.1133 12.4021L31.4551 11.3572L30.5371 10.7126H31.6895L32.0312 9.62866ZM3.57422 12.324L3.87695 13.3982H5.03906L4.11133 14.0525L4.45312 15.0974L3.53516 14.4431L2.68555 15.0974L3.03711 14.0525L2.10938 13.3982H3.26172L3.57422 12.324ZM9.88281 12.324L10.2246 13.3982H11.3379L10.459 14.0525L10.8008 15.0974L9.88281 14.4431L9.00391 15.0974L9.3457 14.0525L8.41797 13.3982H9.53125L9.88281 12.324ZM16.2305 12.324L16.5723 13.3982H17.6855L16.7676 14.0525L17.1582 15.0974L16.2305 14.4431L15.3027 15.0974L15.6934 14.0525L14.7656 13.3982H15.8789L16.2305 12.324ZM22.5391 12.324L22.9199 13.3982H23.9941L23.1152 14.0525L23.457 15.0974L22.5391 14.4431L21.6504 15.0974L21.9922 14.0525L21.0742 13.3982H22.2266L22.5391 12.324ZM28.8867 12.324L29.2285 13.3982H30.3418L29.4629 14.0525L29.8047 15.0974L28.8769 14.4431L27.998 15.0974L28.3398 14.0525L27.4219 13.3982H28.5352L28.8867 12.324ZM35.2344 12.324L35.5762 13.3982H36.6894L35.7617 14.0525L36.1523 15.0974L35.2246 14.4431L34.3066 15.0974L34.6973 14.0525L33.7695 13.3982H34.8828L35.2344 12.324ZM6.71875 15.0193L7.07031 16.0935H8.19336L7.26562 16.7478L7.65625 17.783L6.72852 17.1287L5.80078 17.783L6.19141 16.7478L5.26367 16.0935H6.37695L6.71875 15.0193ZM13.0371 15.0193L13.4277 16.0935H14.502L13.6133 16.7478L13.9551 17.783L13.0371 17.1287L12.1582 17.783L12.5 16.7478L11.5723 16.0935H12.7246L13.0371 15.0193ZM19.3848 15.0193L19.7266 16.0935H20.8398L19.9609 16.7478L20.3027 17.783L19.3848 17.1287L18.4961 17.783L18.8379 16.7478L17.9199 16.0935H19.0332L19.3848 15.0193ZM25.7324 15.0193L26.0742 16.0935H27.1875L26.2695 16.7478L26.6504 17.783L25.7227 17.1287L24.8047 17.783L25.1953 16.7478L24.2676 16.0935H25.3809L25.7324 15.0193ZM32.0312 15.0193L32.4219 16.0935H33.457L32.5781 16.7478L32.9199 17.783L31.9922 17.1287L31.1133 17.783L31.4551 16.7478L30.5371 16.0935H31.6895L32.0312 15.0193ZM3.57422 17.7048L3.87695 18.7791H5.03906L4.11133 19.4431L4.45312 20.4783L3.53516 19.824L2.68555 20.4783L3.03711 19.4431L2.10938 18.7888H3.26172L3.57422 17.7048ZM9.88281 17.7048L10.2246 18.7791H11.3379L10.459 19.4431L10.8008 20.4783L9.88281 19.824L9.00391 20.4783L9.3457 19.4431L8.41797 18.7888H9.53125L9.88281 17.7048ZM16.2305 17.7048L16.5723 18.7791H17.6855L16.7676 19.4431L17.1582 20.4783L16.2305 19.824L15.3027 20.4783L15.6934 19.4431L14.7656 18.7888H15.8789L16.2305 17.7048ZM22.5391 17.7048L22.9199 18.7791H23.9941L23.1152 19.4431L23.457 20.4783L22.5391 19.824L21.6504 20.4783L21.9922 19.4431L21.0742 18.7888H22.2266L22.5391 17.7048ZM28.8867 17.7048L29.2285 18.7791H30.3418L29.4629 19.4431L29.8047 20.4783L28.8769 19.824L27.998 20.4783L28.3398 19.4431L27.4219 18.7888H28.5352L28.8867 17.7048ZM35.2344 17.7048L35.5762 18.7791H36.6894L35.7617 19.4431L36.1523 20.4783L35.2246 19.824L34.3066 20.4783L34.6973 19.4431L33.7695 18.7888H34.8828L35.2344 17.7048ZM6.71875 20.4001L7.07031 21.4744H8.19336L7.26562 22.1287L7.65625 23.1736L6.72852 22.5193L5.80078 23.1736L6.19141 22.1287L5.26367 21.4744H6.37695L6.71875 20.4001ZM13.0371 20.4001L13.4277 21.4744H14.502L13.6133 22.1287L13.9551 23.1736L13.0371 22.5193L12.1582 23.1736L12.5 22.1287L11.5723 21.4744H12.7246L13.0371 20.4001ZM19.3848 20.4001L19.7266 21.4744H20.8398L19.9609 22.1287L20.3027 23.1736L19.3848 22.5193L18.4961 23.1736L18.8379 22.1287L17.9199 21.4744H19.0332L19.3848 20.4001ZM25.7324 20.4001L26.0742 21.4744H27.1875L26.2695 22.1287L26.6504 23.1736L25.7227 22.5193L24.8047 23.1736L25.1953 22.1287L24.2676 21.4744H25.3809L25.7324 20.4001ZM32.0312 20.4001L32.4219 21.4744H33.457L32.5781 22.1287L32.9199 23.1736L31.9922 22.5193L31.1133 23.1736L31.4551 22.1287L30.5371 21.4744H31.6895L32.0312 20.4001ZM3.57422 23.0955L3.87695 24.1697H5.03906L4.11133 24.824L4.45312 25.8591L3.53516 25.2048L2.68555 25.8591L3.03711 24.824L2.10938 24.1697H3.26172L3.57422 23.0955ZM9.88281 23.0955L10.2246 24.1697H11.3379L10.459 24.824L10.8008 25.8591L9.88281 25.2048L9.00391 25.8591L9.3457 24.824L8.41797 24.1697H9.53125L9.88281 23.0955ZM16.2305 23.0955L16.5723 24.1697H17.6855L16.7676 24.824L17.1582 25.8591L16.2305 25.2048L15.3027 25.8591L15.6934 24.824L14.7656 24.1697H15.8789L16.2305 23.0955ZM22.5391 23.0955L22.9199 24.1697H23.9941L23.1152 24.824L23.457 25.8591L22.5391 25.2048L21.6504 25.8591L21.9922 24.824L21.0742 24.1697H22.2266L22.5391 23.0955ZM28.8867 23.0955L29.2285 24.1697H30.3418L29.4629 24.824L29.8047 25.8591L28.8769 25.2048L27.998 25.8591L28.3398 24.824L27.4219 24.1697H28.5352L28.8867 23.0955ZM35.2344 23.0955L35.5762 24.1697H36.6894L35.7617 24.824L36.1523 25.8591L35.2246 25.2048L34.3066 25.8591L34.6973 24.824L33.7695 24.1697H34.8828L35.2344 23.0955Z" fill="white"/>
</g>
</g>
<defs>
<clipPath id="clip0_6_18382">
<rect x="0.5" y="0.220215" width="44" height="44" rx="22" fill="white"/>
</clipPath>
<clipPath id="clip1_6_18382">
<rect width="44" height="44" fill="white" transform="translate(0.5 0.220215)"/>
</clipPath>
<clipPath id="clip2_6_18382">
<rect width="44" height="44" fill="white" transform="translate(0.5 0.220215)"/>
</clipPath>
<clipPath id="clip3_6_18382">
<rect width="50" height="50" fill="white" transform="translate(0.380859 0.400146)"/>
</clipPath>
</defs>
</svg>
