<svg width="45" height="45" viewBox="0 0 45 45" fill="none" xmlns="http://www.w3.org/2000/svg">
<g clip-path="url(#clip0_6_18355)">
<g clip-path="url(#clip1_6_18355)">
<g clip-path="url(#clip2_6_18355)">
<path d="M0.5 0.220215H44.5V44.2202H0.5V0.220215Z" fill="#00008B"/>
<path d="M22.5 0.220215V2.97021L14.3359 11.2202L22.5 19.2554V22.2202H19.6211L11.4141 14.1421L3.42188 22.2202H0.5V19.2983L8.49219 11.2632L0.5 3.3999V0.220215H3.16406L11.4141 8.29834L19.4062 0.220215H22.5Z" fill="white"/>
<path d="M8.40625 14.1421L8.87891 15.603L2.30469 22.2202H0.5V22.0913L8.40625 14.1421ZM13.7344 13.6265L16.0547 13.9702L22.5 20.2866V22.2202L13.7344 13.6265ZM22.5 0.220215L14.25 8.64209L14.0781 6.75146L20.5234 0.220215H22.5ZM0.5 0.263184L8.79297 8.38428L6.25781 8.04053L0.5 2.32568V0.263184Z" fill="#FF0000"/>
<path d="M8.0625 0.220215V22.2202H14.9375V0.220215H8.0625ZM0.5 7.78271V14.6577H22.5V7.78271H0.5Z" fill="white"/>
<path d="M0.5 9.15771V13.2827H22.5V9.15771H0.5ZM9.4375 0.220215V22.2202H13.5625V0.220215H9.4375Z" fill="#FF0000"/>
<path d="M17.8596 34.8358L13.9236 35.2999L14.3189 39.2444L11.5002 36.4601L8.66426 39.2272L9.08535 35.2827L5.14941 34.7843L8.49238 32.653L6.42988 29.2671L10.1768 30.5562L11.5346 26.8265L12.8666 30.5647L16.6221 29.3015L14.5338 32.6702L17.8682 34.8272L17.8596 34.8358ZM36.9979 35.5233L35.2361 35.7468L35.4252 37.5085L34.1533 36.271L32.89 37.5171L33.0619 35.7554L31.3002 35.5491L32.7869 34.5866L31.8502 33.0827L33.5346 33.6413L34.1275 31.9655L34.7377 33.6327L36.4135 33.0569L35.4939 34.5694L36.9979 35.5233ZM36.1643 25.4515L36.3963 24.3343L35.5541 23.5608L36.6885 23.4319L37.1611 22.3921L37.6338 23.4319L38.7682 23.5608L37.926 24.3343L38.158 25.4515L37.1611 24.8843L36.1643 25.4515ZM28.9369 20.2952L27.1924 20.4843L27.3471 22.2288L26.1096 20.9827L24.8377 22.1944L25.0439 20.4499L23.308 20.2179L24.7947 19.2897L23.8924 17.7858L25.551 18.3702L26.1697 16.7288L26.7455 18.3874L28.4127 17.846L27.476 19.3327L28.9369 20.2952ZM44.0447 17.4765L42.2486 17.7085L42.4463 19.5046L41.1486 18.2413L39.8596 19.5132L40.04 17.7085L38.2439 17.5022L39.765 16.514L38.8111 14.9757L40.5299 15.5515L41.1314 13.8499L41.7502 15.5515L43.4604 14.9585L42.515 16.5054L44.0447 17.4765ZM36.9893 10.3007L35.2104 10.4983L35.3736 12.2858L34.1104 11.014L32.8127 12.2515L33.0189 10.4726L31.24 10.2319L32.7611 9.28662L31.8416 7.74834L33.5346 8.34131L34.1619 6.66553L34.7463 8.3585L36.4478 7.7999L35.4939 9.3124L36.9893 10.3007Z" fill="white"/>
</g>
</g>
</g>
<defs>
<clipPath id="clip0_6_18355">
<rect x="0.5" y="0.220215" width="44" height="44" rx="22" fill="white"/>
</clipPath>
<clipPath id="clip1_6_18355">
<rect width="44" height="44" fill="white" transform="translate(0.5 0.220215)"/>
</clipPath>
<clipPath id="clip2_6_18355">
<rect width="44" height="44" fill="white" transform="translate(0.5 0.220215)"/>
</clipPath>
</defs>
</svg>
