<svg width="30" height="30" viewBox="0 0 30 30" fill="none" xmlns="http://www.w3.org/2000/svg">
<path d="M17.02 26.9986C17.02 27.3359 17.135 27.6196 17.365 27.8496C17.595 28.0796 17.8786 28.1946 18.216 28.1946C18.5533 28.1946 18.837 28.0796 19.067 27.8496C19.297 27.6196 19.412 27.3359 19.412 26.9986C19.412 26.6612 19.2931 26.3776 19.0555 26.1476C18.8178 25.9176 18.538 25.8026 18.216 25.8026C17.894 25.8026 17.6141 25.9176 17.3765 26.1476C17.1388 26.3776 17.02 26.6612 17.02 26.9986ZM4.99098 10.9446H22.034C22.2486 10.9446 22.4288 11.0251 22.5745 11.1861C22.7201 11.3471 22.7776 11.5349 22.747 11.7496L22.011 17.7526C21.9343 18.4119 21.643 18.9601 21.137 19.3971C20.631 19.8341 20.0483 20.0526 19.389 20.0526H6.83098L6.96898 20.7196C7.06098 21.2256 7.30631 21.6396 7.70498 21.9616C8.10365 22.2836 8.56365 22.4446 9.08498 22.4446H20.125C20.3243 22.4446 20.493 22.5136 20.631 22.6516C20.769 22.7896 20.838 22.9582 20.838 23.1576C20.838 23.3569 20.769 23.5294 20.631 23.6751C20.493 23.8207 20.3243 23.8936 20.125 23.8936H9.06198C8.49465 23.8936 7.96181 23.7671 7.46348 23.5141C6.96515 23.2611 6.54731 22.9161 6.20998 22.4791C5.87265 22.0421 5.65031 21.5476 5.54298 20.9956L3.24298 9.51855H0.96598C0.766647 9.51855 0.594147 9.44572 0.44848 9.30005C0.302814 9.15439 0.22998 8.98189 0.22998 8.78255C0.22998 8.58322 0.302814 8.41455 0.44848 8.27655C0.594147 8.13856 0.766647 8.06956 0.96598 8.06956H3.84098C4.00965 8.06956 4.16298 8.12322 4.30098 8.23055C4.43898 8.33789 4.52331 8.47589 4.55398 8.64455L4.99098 10.9446ZM5.28998 12.3936L6.53198 18.6266H19.389C19.6803 18.6266 19.941 18.5269 20.171 18.3276C20.401 18.1282 20.539 17.8752 20.585 17.5686L21.229 12.3936H5.28998ZM15.571 26.9986C15.571 26.5232 15.6898 26.0862 15.9275 25.6876C16.1651 25.2889 16.4871 24.9707 16.8935 24.7331C17.2998 24.4954 17.7406 24.3766 18.216 24.3766C18.6913 24.3766 19.1321 24.4954 19.5385 24.7331C19.9448 24.9707 20.263 25.2889 20.493 25.6876C20.723 26.0862 20.838 26.5232 20.838 26.9986C20.838 27.4739 20.7191 27.9147 20.4815 28.3211C20.2438 28.7274 19.9256 29.0494 19.527 29.2871C19.1283 29.5247 18.6913 29.6436 18.216 29.6436C17.7406 29.6436 17.2998 29.5247 16.8935 29.2871C16.4871 29.0494 16.1651 28.7274 15.9275 28.3211C15.6898 27.9147 15.571 27.4739 15.571 26.9986ZM5.97998 26.9986C5.97998 26.5232 6.09881 26.0862 6.33648 25.6876C6.57415 25.2889 6.89615 24.9707 7.30248 24.7331C7.70881 24.4954 8.14965 24.3766 8.62498 24.3766C9.10031 24.3766 9.54115 24.4954 9.94748 24.7331C10.3538 24.9707 10.6758 25.2889 10.9135 25.6876C11.1511 26.0862 11.27 26.5232 11.27 26.9986C11.27 27.4739 11.1511 27.9147 10.9135 28.3211C10.6758 28.7274 10.3538 29.0494 9.94748 29.2871C9.54115 29.5247 9.10031 29.6436 8.62498 29.6436C8.14965 29.6436 7.70881 29.5247 7.30248 29.2871C6.89615 29.0494 6.57415 28.7274 6.33648 28.3211C6.09881 27.9147 5.97998 27.4739 5.97998 26.9986ZM7.42898 26.9986C7.42898 27.3359 7.54398 27.6196 7.77398 27.8496C8.00398 28.0796 8.28765 28.1946 8.62498 28.1946C8.96231 28.1946 9.24598 28.0796 9.47598 27.8496C9.70598 27.6196 9.82098 27.3359 9.82098 26.9986C9.82098 26.6612 9.70598 26.3776 9.47598 26.1476C9.24598 25.9176 8.96231 25.8026 8.62498 25.8026C8.28765 25.8026 8.00398 25.9176 7.77398 26.1476C7.54398 26.3776 7.42898 26.6612 7.42898 26.9986Z" fill="#090909"/>
<rect x="14" y="0.356445" width="16" height="16" rx="8" fill="#00A21A"/>
<path d="M24.5811 8.28223C24.5811 8.8584 24.5355 9.37435 24.4443 9.83008C24.3564 10.2826 24.2165 10.6667 24.0244 10.9824C23.8324 11.2982 23.5817 11.5391 23.2725 11.7051C22.9632 11.8711 22.5889 11.9541 22.1494 11.9541C21.5993 11.9541 21.1452 11.8092 20.7871 11.5195C20.429 11.2266 20.1637 10.8066 19.9912 10.2598C19.8187 9.70964 19.7324 9.05046 19.7324 8.28223C19.7324 7.514 19.8105 6.85645 19.9668 6.30957C20.1263 5.75944 20.3835 5.33789 20.7383 5.04492C21.0931 4.75195 21.5635 4.60547 22.1494 4.60547C22.7028 4.60547 23.1585 4.75195 23.5166 5.04492C23.8779 5.33464 24.1449 5.75456 24.3174 6.30469C24.4932 6.85156 24.5811 7.51074 24.5811 8.28223ZM20.8896 8.28223C20.8896 8.88444 20.9287 9.38737 21.0068 9.79102C21.0882 10.1947 21.2217 10.4974 21.4072 10.6992C21.5928 10.8978 21.8402 10.9971 22.1494 10.9971C22.4587 10.9971 22.7061 10.8978 22.8916 10.6992C23.0771 10.5007 23.2106 10.1995 23.292 9.7959C23.3766 9.39225 23.4189 8.8877 23.4189 8.28223C23.4189 7.68327 23.3783 7.18197 23.2969 6.77832C23.2155 6.37467 23.082 6.07194 22.8965 5.87012C22.7109 5.66504 22.4619 5.5625 22.1494 5.5625C21.8369 5.5625 21.5879 5.66504 21.4023 5.87012C21.2201 6.07194 21.0882 6.37467 21.0068 6.77832C20.9287 7.18197 20.8896 7.68327 20.8896 8.28223Z" fill="white"/>
</svg>
