<svg width="16" height="16" viewBox="0 0 16 16" fill="none" xmlns="http://www.w3.org/2000/svg">
<path d="M12.6666 7.33317H8.66663V3.33317C8.66663 3.15636 8.59639 2.98679 8.47136 2.86177C8.34634 2.73674 8.17677 2.6665 7.99996 2.6665C7.82315 2.6665 7.65358 2.73674 7.52855 2.86177C7.40353 2.98679 7.33329 3.15636 7.33329 3.33317V7.33317H3.33329C3.15648 7.33317 2.98691 7.40341 2.86189 7.52843C2.73686 7.65346 2.66663 7.82303 2.66663 7.99984C2.66663 8.17665 2.73686 8.34622 2.86189 8.47124C2.98691 8.59627 3.15648 8.6665 3.33329 8.6665H7.33329V12.6665C7.33329 12.8433 7.40353 13.0129 7.52855 13.1379C7.65358 13.2629 7.82315 13.3332 7.99996 13.3332C8.17677 13.3332 8.34634 13.2629 8.47136 13.1379C8.59639 13.0129 8.66663 12.8433 8.66663 12.6665V8.6665H12.6666C12.8434 8.6665 13.013 8.59627 13.138 8.47124C13.2631 8.34622 13.3333 8.17665 13.3333 7.99984C13.3333 7.82303 13.2631 7.65346 13.138 7.52843C13.013 7.40341 12.8434 7.33317 12.6666 7.33317Z" fill="#090909"/>
</svg>
