<svg width="16" height="17" viewBox="0 0 16 17" fill="none" xmlns="http://www.w3.org/2000/svg">
<g clip-path="url(#clip0_11_5775)">
<path d="M11.7419 11.0941C12.7102 9.77279 13.1439 8.13459 12.9562 6.50725C12.7685 4.87991 11.9733 3.38344 10.7297 2.31723C9.48604 1.25102 7.88567 0.693704 6.24876 0.756777C4.61184 0.81985 3.05911 1.49866 1.90119 2.65741C0.743273 3.81615 0.0655718 5.36938 0.00366997 7.00633C-0.0582319 8.64329 0.500231 10.2433 1.56733 11.4861C2.63443 12.729 4.13147 13.5232 5.75894 13.7097C7.38641 13.8962 9.0243 13.4613 10.3449 12.4921H10.3439C10.3739 12.5321 10.4059 12.5701 10.4419 12.6071L14.2919 16.4571C14.4794 16.6447 14.7338 16.7502 14.9991 16.7503C15.2643 16.7504 15.5188 16.6451 15.7064 16.4576C15.8941 16.2701 15.9995 16.0157 15.9996 15.7505C15.9997 15.4852 15.8944 15.2307 15.7069 15.0431L11.8569 11.1931C11.8212 11.1569 11.7827 11.1245 11.7419 11.0941ZM11.9999 7.2501C11.9999 7.97237 11.8577 8.68757 11.5813 9.35486C11.3049 10.0222 10.8997 10.6285 10.389 11.1392C9.87829 11.6499 9.27197 12.055 8.60468 12.3314C7.93739 12.6078 7.22219 12.7501 6.49992 12.7501C5.77765 12.7501 5.06245 12.6078 4.39516 12.3314C3.72787 12.055 3.12156 11.6499 2.61083 11.1392C2.10011 10.6285 1.69498 10.0222 1.41858 9.35486C1.14218 8.68757 0.999921 7.97237 0.999921 7.2501C0.999921 5.79141 1.57938 4.39246 2.61083 3.36101C3.64228 2.32956 5.04123 1.7501 6.49992 1.7501C7.95861 1.7501 9.35756 2.32956 10.389 3.36101C11.4205 4.39246 11.9999 5.79141 11.9999 7.2501Z" fill="black"/>
</g>
<defs>
<clipPath id="clip0_11_5775">
<rect width="16" height="16" fill="white" transform="translate(0 0.75)"/>
</clipPath>
</defs>
</svg>
