<svg width="67" height="66" viewBox="0 0 67 66" fill="none" xmlns="http://www.w3.org/2000/svg">
<g clip-path="url(#clip0_4003_7410)">
<g clip-path="url(#clip1_4003_7410)">
<g clip-path="url(#clip2_4003_7410)">
<path d="M65.028 8.0539C64.7274 7.94678 57.56 5.43994 48.8528 5.43994C41.5468 5.43994 35.323 7.2057 33.3337 7.83566C31.3444 7.2057 25.1206 5.43994 17.8145 5.43994C9.10749 5.43994 1.94004 7.94678 1.63943 8.0539C0.856584 8.33092 0.33374 9.07072 0.33374 9.9019V50.0132C0.33374 50.6497 0.644791 51.2469 1.16493 51.6142C2.12528 52.2922 2.94435 51.8457 3.8717 51.5659V58.5478C3.8717 59.132 4.13312 59.6862 4.58275 60.0587C5.03366 60.4313 5.62702 60.5829 6.20078 60.473L26.8889 56.5129C27.7985 58.512 29.8932 60.1132 32.186 60.4273C32.9111 60.7986 37.6374 60.655 39.6751 56.4227C62.6964 60.7203 61.3414 60.5083 61.6808 60.5083C62.7647 60.5083 63.6412 59.6274 63.6412 58.5479V51.8353C65.1206 52.3432 66.3336 51.271 66.3336 50.0133V9.9019C66.3337 9.07072 65.8109 8.33092 65.028 8.0539ZM26.2263 52.6482L7.79264 56.177V50.5701C14.3767 49.1781 20.1221 49.1603 26.2263 50.2551V52.6482ZM4.25468 47.377C4.25468 45.1359 4.25468 13.4256 4.25468 11.3409C13.1908 8.74639 22.2148 8.68774 31.3732 11.3422C31.3732 13.5412 31.3732 46.1798 31.3732 47.377C22.4803 45.0132 13.5788 44.8845 4.25468 47.377ZM36.3724 53.9526C36.3388 54.289 36.1631 54.6757 36.0117 54.9785C34.4931 57.6393 30.62 56.8099 30.1526 53.9473C30.1428 53.8585 30.1502 53.2226 30.1473 51.1151C32.729 51.7872 33.0582 52.1904 33.9924 51.86C34.0057 51.86 34.7839 51.5718 36.3724 51.1543V53.9526ZM59.7204 56.1861L40.2933 52.5501V50.2825C46.7526 49.103 52.8397 49.1816 59.7203 50.7568L59.7204 56.1861ZM62.4128 47.377C52.9847 44.8657 44.0496 45.0325 35.2942 47.377C35.2942 46.171 35.2942 13.5336 35.2942 11.3409C44.6009 8.63682 53.5948 8.79254 62.4128 11.3422C62.4128 12.6201 62.4128 45.9216 62.4128 47.377Z" fill="white"/>
<path d="M55.9332 15.641C48.444 12.9529 42.1414 15.5354 41.8361 15.6201C40.8062 15.9507 40.239 17.0552 40.5696 18.0863C40.9016 19.1176 42.0048 19.6848 43.0359 19.3528C50.3174 17.0197 54.0855 19.4482 55.2705 19.4482C56.0744 19.4482 56.8285 18.949 57.1159 18.1491C57.4839 17.1269 56.9477 16.0042 55.9332 15.641Z" fill="white"/>
<path d="M55.9332 26.3572C48.3205 23.6236 42.2017 26.2788 41.8368 26.3358C40.8059 26.6668 40.2386 27.7709 40.5698 28.8018C40.9008 29.8327 42.0048 30.4001 43.0357 30.0688C43.3456 30.0197 48.4061 27.8204 54.6082 30.0474C55.6229 30.4118 56.7485 29.8878 57.1159 28.8648C57.4815 27.8459 56.9521 26.7231 55.9332 26.3572Z" fill="white"/>
<path d="M55.9332 37.0729C48.3203 34.3394 42.2073 36.9937 41.8368 37.0515C40.8059 37.3825 40.2386 38.4866 40.5698 39.5175C40.9008 40.5483 42.0048 41.1158 43.0357 40.7845C43.3468 40.7352 48.3982 38.533 54.6082 40.7631C55.625 41.1279 56.7492 40.6018 57.1159 39.5805C57.4815 38.5616 56.9521 37.4387 55.9332 37.0729Z" fill="white"/>
<path d="M24.8944 15.641C20.6829 14.1284 15.8935 13.983 11.4416 15.4136C11.166 15.5552 9.95227 15.6283 9.53604 16.8656C9.03665 18.3743 10.4588 19.848 11.9971 19.3528C12.3122 19.3028 17.3585 17.1012 23.5691 19.3319C24.5947 19.7001 25.7132 19.1628 26.076 18.1491C26.4419 17.1296 25.9126 16.0069 24.8944 15.641Z" fill="white"/>
<path d="M24.8941 26.3572C17.2815 23.6236 11.1627 26.2788 10.7977 26.3358C9.7669 26.6668 9.19959 27.7709 9.53075 28.8018C9.86178 29.8327 10.9656 30.4001 11.9967 30.0688C12.307 30.0197 17.367 27.8204 23.5691 30.0474C24.5839 30.4118 25.7095 29.8878 26.0769 28.8648C26.4427 27.8459 25.9133 26.7231 24.8941 26.3572Z" fill="white"/>
<path d="M24.8941 37.0729C17.2812 34.3394 11.1682 36.9937 10.7977 37.0515C9.7669 37.3825 9.19959 38.4866 9.53075 39.5175C9.86178 40.5483 10.9656 41.1158 11.9967 40.7845C12.3148 40.7341 17.3591 38.533 23.5691 40.7631C24.5859 41.1279 25.7101 40.6018 26.0769 39.5805C26.4427 38.5616 25.9133 37.4387 24.8941 37.0729Z" fill="white"/>
</g>
</g>
</g>
<defs>
<clipPath id="clip0_4003_7410">
<rect width="66" height="66" fill="white" transform="translate(0.33374)"/>
</clipPath>
<clipPath id="clip1_4003_7410">
<rect width="66" height="66" fill="white" transform="translate(0.33374)"/>
</clipPath>
<clipPath id="clip2_4003_7410">
<rect width="66" height="66" fill="white" transform="translate(0.33374)"/>
</clipPath>
</defs>
</svg>
