<svg width="60" height="61" viewBox="0 0 60 61" fill="none" xmlns="http://www.w3.org/2000/svg">
<g clip-path="url(#clip0_4003_3129)">
<g clip-path="url(#clip1_4003_3129)">
<path d="M10 10.2397H50V50.2397H10V10.2397Z" fill="#FFB700"/>
<path d="M11.6641 30.2397L17.1406 11.9038H22.6172V48.5757H17.1484L11.6641 30.2397Z" fill="#FF5B00"/>
<path d="M11.6641 11.9038H17.1406V48.5757H11.6719L11.6641 11.9038Z" fill="#005641"/>
<path d="M24.2734 11.9038H48.3359V48.5757H24.2734V11.9038Z" fill="#8D2029"/>
<path d="M46.2031 45.7788C46.2031 45.7788 46.4297 46.2397 46.6797 46.4272C47.0547 46.7007 47.8125 46.6851 48.1328 47.0054C48.5234 47.396 48.1016 47.896 48.1094 47.9429L48.1328 48.2085C48.1328 48.2085 47.8672 48.2085 47.7578 48.2319C47.5937 48.2554 47.5234 48.3882 47.2188 48.3726C46.4453 48.3179 46.4766 47.6226 46.4375 47.0288C46.3984 46.7944 46.3047 46.5054 46.2578 46.2788C46.2109 46.0835 46.2031 45.7788 46.2031 45.7788Z" fill="#FFB700" stroke="black" stroke-width="0.0703125"/>
<path d="M26.6328 45.7788C26.6328 45.7788 26.4062 46.2397 26.1562 46.4272C25.7812 46.7007 25.0234 46.6851 24.7031 47.0054C24.3125 47.396 24.7344 47.896 24.7266 47.9429L24.7031 48.2085C24.7031 48.2085 24.9688 48.2085 25.0781 48.2319C25.2422 48.2554 25.3125 48.3882 25.6172 48.3726C26.3906 48.3179 26.3594 47.6226 26.3984 47.0288C26.4375 46.7944 26.5312 46.5054 26.5781 46.2788C26.625 46.0835 26.6328 45.7788 26.6328 45.7788Z" fill="#FFB700" stroke="black" stroke-width="0.0703125"/>
<path d="M46.2031 14.7007C46.2031 14.7007 46.4297 14.2397 46.6797 14.0522C47.0547 13.7788 47.8125 13.7944 48.1328 13.4741C48.5234 13.0835 48.1016 12.5835 48.1094 12.5366L48.1328 12.271C48.1328 12.271 47.8672 12.271 47.7578 12.2476C47.5937 12.2241 47.5234 12.0913 47.2188 12.1069C46.4453 12.1616 46.4766 12.8569 46.4375 13.4507C46.3984 13.6851 46.3047 13.9741 46.2578 14.2007C46.2109 14.396 46.2031 14.7007 46.2031 14.7007Z" fill="#FFB700" stroke="black" stroke-width="0.0703125"/>
<path d="M26.625 14.7007C26.625 14.7007 26.3984 14.2397 26.1484 14.0522C25.7734 13.7788 25.0156 13.7944 24.6953 13.4741C24.3047 13.0835 24.7266 12.5835 24.7188 12.5366L24.6953 12.271C24.6953 12.271 24.9609 12.271 25.0703 12.2476C25.2344 12.2241 25.3047 12.0913 25.6094 12.1069C26.3828 12.1616 26.3516 12.8569 26.3906 13.4507C26.4297 13.6851 26.5234 13.9741 26.5703 14.2007C26.6172 14.396 26.625 14.7007 26.625 14.7007Z" fill="#FFB700" stroke="black" stroke-width="0.0703125"/>
<path d="M32.7185 36.4773L32.8622 36.3898L32.9247 36.4773C33.006 36.5898 33.2372 36.5835 33.3872 36.4773L33.506 36.3835L33.606 36.471C33.731 36.5898 33.9685 36.5898 34.1247 36.471C34.231 36.396 34.2497 36.3898 34.3122 36.4523C34.356 36.4898 34.481 36.5273 34.5872 36.546C34.7872 36.571 34.7872 36.571 34.8997 36.396C34.9997 36.2523 35.0122 36.196 34.9935 36.0523C34.976 35.9425 34.9635 35.832 34.956 35.721C34.9435 35.5585 34.9497 35.5585 35.181 35.471C35.2957 35.4358 35.4084 35.3941 35.5185 35.346C35.6122 35.2898 35.8747 34.9835 35.8747 34.921C35.8747 34.9085 35.7747 34.8835 35.6497 34.871C35.1497 34.8085 35.0685 34.546 35.3935 34.0585C35.9122 33.246 36.231 32.4648 36.231 31.971C36.231 31.746 36.2497 31.671 36.2747 31.721C36.3935 31.9148 36.181 32.746 35.8685 33.346L35.7435 33.5835L35.8622 33.5585C35.9247 33.5398 36.3247 33.371 36.7372 33.1835C37.8747 32.671 38.2622 32.571 38.9997 32.6023C39.6185 32.6273 39.8747 32.746 40.3122 33.2023C40.5435 33.4523 40.7685 33.621 41.1747 33.8773C42.0372 34.4148 42.0747 34.4648 42.1185 35.1023C42.1622 35.746 42.1372 35.7835 41.6497 35.8898C41.231 35.9835 40.9685 36.1773 40.8997 36.4523C40.8622 36.5898 40.9435 36.596 41.1497 36.4585L41.306 36.3585L41.3747 36.4585C41.4685 36.5898 41.656 36.5898 41.8122 36.4585L41.9372 36.3648L42.0622 36.4585C42.2497 36.6148 42.4997 36.5773 42.5747 36.3835C42.5872 36.3523 42.6247 36.3585 42.6997 36.4273C42.8435 36.5523 43.1997 36.6023 43.2372 36.5023C43.2497 36.4648 43.2247 36.3773 43.1747 36.3023C42.9685 35.9898 42.8997 35.846 42.8997 35.6773C42.8997 35.4398 42.9622 35.321 43.2372 35.1335C43.5622 34.896 43.6622 34.596 43.4122 34.596C43.2622 34.596 43.106 34.4585 43.006 34.2398C42.806 33.7898 42.8497 33.2898 43.1497 32.4523C43.3797 31.9595 43.4951 31.421 43.4872 30.8773C43.4872 30.4148 43.4747 30.3398 43.3747 30.0835C43.2965 29.9054 43.2001 29.7357 43.0872 29.5773L42.9122 29.346L43.131 29.1585C43.806 28.6023 43.6685 27.6898 42.856 27.3398C42.606 27.2273 42.5435 27.221 42.106 27.221C41.856 27.221 41.4497 27.2585 41.231 27.3023C40.9373 27.3487 40.6407 27.3738 40.3435 27.3773C39.9185 27.3773 39.8435 27.3648 39.681 27.2773C39.5122 27.1898 39.481 27.146 39.4497 26.9335C39.4467 26.9135 39.4389 26.8945 39.4269 26.8782C39.4149 26.8618 39.3992 26.8487 39.381 26.8398C39.3185 26.821 39.056 27.0523 39.0185 27.1523C38.9935 27.2085 38.981 27.2023 38.9247 27.1335C38.8717 27.0654 38.8295 26.9895 38.7997 26.9085C38.7372 26.7023 38.8185 26.5523 39.0622 26.4335L39.2497 26.346L39.1372 26.2773C38.9122 26.1335 38.5247 26.2335 38.3872 26.4648C38.3435 26.5273 38.2997 26.5898 38.2872 26.5898C38.2747 26.5898 38.1997 26.5273 38.1247 26.446C37.831 26.1585 37.931 25.7335 38.3247 25.6085C38.531 25.5398 38.7185 25.5898 38.756 25.7335C38.8185 25.9398 38.9935 25.6648 38.9622 25.4085C38.9435 25.2398 38.9435 25.2335 39.0622 25.2335C39.2247 25.2335 39.5622 25.446 39.6747 25.6085C39.7997 25.8023 39.7872 26.1085 39.6497 26.3335L39.5435 26.5085L39.6872 26.4835C39.8872 26.4398 40.0872 26.3148 40.1872 26.1585C40.2399 26.059 40.2695 25.9489 40.2738 25.8364C40.2782 25.7239 40.2571 25.6118 40.2122 25.5085C40.1185 25.3398 40.131 25.3148 40.2685 25.371C40.4935 25.4648 40.6185 25.571 40.706 25.7523C40.7935 25.9148 40.7997 25.9523 40.756 26.1273C40.726 26.2338 40.6796 26.3351 40.6185 26.4273C40.5435 26.5273 40.5372 26.546 40.5997 26.546C40.7122 26.546 40.9372 26.4398 41.0185 26.3585C41.0622 26.3085 41.1247 26.2023 41.156 26.1085L41.2185 25.9523L41.281 26.0773C41.3747 26.246 41.5622 26.4023 41.7872 26.5023C42.031 26.6023 42.131 26.6085 42.006 26.5148C41.9185 26.4523 41.756 25.9835 41.8122 25.9398C42.0819 26.0908 42.3283 26.2803 42.5435 26.5023C42.8997 26.821 43.1247 26.9273 43.4497 26.9273C43.8685 26.9273 44.1122 26.5648 43.9247 26.221C43.8185 26.021 43.5747 25.9898 43.4247 26.1585C43.3622 26.2398 43.3435 26.3023 43.3622 26.3898C43.3872 26.4898 43.381 26.5023 43.2872 26.5023C43.1622 26.5023 42.9247 26.346 42.4997 25.9898C41.9081 25.4807 41.2281 25.0845 40.4935 24.821C39.9958 24.706 39.4818 24.6785 38.9747 24.7398C38.5747 24.8148 38.0997 25.046 37.8372 25.2898C37.381 25.7273 37.3747 26.3085 37.8185 26.8398L37.9435 26.9898L37.8622 27.1273C37.8011 27.2258 37.7708 27.3403 37.7753 27.4561C37.7797 27.5719 37.8187 27.6838 37.8872 27.7773C37.9497 27.8648 38.0122 27.9335 38.031 27.9335C38.0435 27.9335 38.056 27.8773 38.0622 27.8085C38.0747 27.6398 38.1497 27.5273 38.2747 27.4835C38.3872 27.4398 38.4622 27.4648 38.9747 27.671C39.5185 27.8835 40.4122 27.896 41.3622 27.7085C41.774 27.6134 42.2024 27.6177 42.6122 27.721C43.0622 27.9085 43.1622 28.3898 42.8372 28.7523C42.6935 28.9148 42.5622 28.9773 42.106 29.1023C41.7087 29.207 41.2958 29.2388 40.8872 29.196C40.2122 29.1898 39.9685 29.2023 39.6997 29.2585C39.3935 29.321 39.2122 29.3273 38.3372 29.3085L37.3185 29.2835L37.431 29.371C37.4912 29.4245 37.556 29.4726 37.6247 29.5148C37.706 29.5585 37.6997 29.5648 37.5872 29.6085C37.5247 29.6335 37.3747 29.6523 37.256 29.6523H37.0497L37.0247 29.8273C37.0079 29.9098 37.0079 29.9948 37.0247 30.0773C37.0497 30.1398 37.0372 30.1523 36.9747 30.1273C36.931 30.1085 36.8122 30.0773 36.706 30.0585C36.5988 30.0355 36.4941 30.0021 36.3935 29.9585C36.2747 29.896 36.2622 29.896 36.2185 29.9773C36.181 30.0398 35.831 30.3023 35.781 30.3023C35.7584 30.1401 35.712 29.9822 35.6435 29.8335C35.581 29.7023 35.5247 29.5523 35.506 29.5085C35.4872 29.4398 35.4747 29.4335 35.4435 29.4898C35.4247 29.521 35.3997 29.6148 35.381 29.6898C35.3591 29.791 35.3211 29.8881 35.2685 29.9773L35.1747 30.1148L35.1122 29.996C35.0497 29.871 34.9497 29.7335 34.9122 29.7335C34.8997 29.7335 34.881 29.771 34.8685 29.8273C34.8372 29.9273 34.5935 30.221 34.531 30.221C34.5122 30.221 34.4935 30.1398 34.4935 30.0335C34.4935 29.9398 34.4747 29.8523 34.4497 29.8523C34.4247 29.8523 34.406 29.8835 34.406 29.9148C34.406 29.9898 34.1997 30.2273 34.1247 30.2273C34.0997 30.2273 34.0497 30.2523 34.0185 30.2898C33.9435 30.371 33.881 30.3585 33.9122 30.2648C33.921 30.1847 33.9124 30.1038 33.8872 30.0273L33.8247 29.8273C33.8122 29.796 33.7372 29.8085 33.5747 29.8585C33.3247 29.9398 33.2372 29.921 33.3685 29.821C33.4185 29.7835 33.4935 29.6523 33.531 29.5335C33.5747 29.4085 33.6372 29.3023 33.6685 29.2898C33.7122 29.2773 33.7122 29.2898 33.656 29.3648C33.6198 29.4123 33.5961 29.4682 33.5872 29.5273C33.5872 29.5585 33.556 29.6398 33.5247 29.7085C33.4872 29.771 33.4622 29.8335 33.4685 29.8398C33.4747 29.846 33.5747 29.8085 33.6872 29.7585L33.8872 29.6585V29.746C33.8872 29.796 33.9122 29.921 33.9435 30.0273L33.9997 30.2148L34.1372 30.1523C34.2747 30.0898 34.406 29.8648 34.406 29.6835C34.406 29.596 34.456 29.6085 34.481 29.7023C34.481 29.7273 34.5185 29.8335 34.5435 29.9335L34.606 30.1085L34.6997 29.996C34.756 29.9335 34.8185 29.8085 34.8435 29.7273C34.8935 29.5773 34.9685 29.5085 34.9685 29.621C34.9685 29.696 35.181 29.9835 35.2185 29.9585C35.2435 29.946 35.281 29.8398 35.3122 29.721C35.3747 29.471 35.4685 29.3085 35.531 29.346C35.556 29.3585 35.5622 29.3835 35.5497 29.4085C35.5372 29.421 35.5872 29.5835 35.6622 29.7585C35.7165 29.8897 35.7707 30.021 35.8247 30.1523C35.8497 30.2148 35.8747 30.2148 36.031 30.071C36.1247 29.9835 36.2185 29.8898 36.2247 29.8585C36.2435 29.8085 36.2622 29.8148 36.3497 29.871C36.534 29.9684 36.7358 30.0279 36.9435 30.046C36.956 30.0335 36.9685 29.921 36.9685 29.796L36.9747 29.5648L37.0997 29.5898C37.1622 29.6085 37.306 29.6085 37.4122 29.5898L37.5997 29.5648L37.431 29.4398C37.3372 29.3773 37.2435 29.296 37.2185 29.2585C37.1997 29.221 37.1122 29.1835 37.0185 29.1773C36.7622 29.1523 36.306 28.9023 36.306 28.7773C36.306 28.7523 36.3685 28.796 36.4435 28.8648C36.6185 29.021 36.856 29.1148 37.0685 29.1148H37.2185L37.1247 28.9898C37.0579 28.8929 37.0151 28.7815 36.9997 28.6648C36.9872 28.4773 36.9685 28.4523 36.7747 28.321C36.6624 28.2414 36.5577 28.1515 36.4622 28.0523L36.356 27.9335L36.2997 28.0773C36.2685 28.1585 36.2372 28.221 36.2185 28.221C36.206 28.221 36.1435 28.171 36.0935 28.1148C36.0583 28.074 36.0159 28.0401 35.9685 28.0148C35.9497 28.0148 35.906 28.0898 35.856 28.1835L35.7685 28.3523L35.706 28.2585C35.6504 28.1819 35.5876 28.1107 35.5185 28.046C35.4435 27.9835 35.4122 27.9335 35.4372 27.9335C35.4622 27.9335 35.5435 27.996 35.6247 28.0773L35.7622 28.221L35.8247 28.1148C35.8608 28.0412 35.8718 27.9577 35.856 27.8773C35.831 27.7648 35.8372 27.7585 35.8747 27.8335C35.9286 27.9041 35.9917 27.9671 36.0622 28.021L36.1997 28.1335L36.2935 27.9648C36.3872 27.7898 36.3872 27.7898 36.4247 27.896C36.4872 28.0273 36.8935 28.3648 37.2372 28.5585C37.2997 28.5898 37.2747 28.4898 37.1747 28.246C37.1447 28.1659 37.1278 28.0815 37.1247 27.996C37.1247 27.8835 37.0935 27.8335 36.9497 27.721C36.8603 27.6639 36.7856 27.5867 36.7313 27.4955C36.677 27.4044 36.6448 27.3018 36.6372 27.196C36.6185 27.0898 36.581 26.9773 36.5497 26.9398C36.5122 26.8773 36.4997 26.9148 36.5122 27.1023C36.5247 27.2335 36.506 27.396 36.4747 27.4648L36.4247 27.5898L36.3872 27.4835C36.3622 27.4273 36.2622 27.3273 36.1685 27.2648C36.0747 27.2023 36.006 27.1398 36.0185 27.1273C36.031 27.1148 36.131 27.171 36.2372 27.2523C36.406 27.3835 36.4372 27.396 36.4622 27.3398C36.4872 27.2773 36.4622 26.9898 36.4122 26.7898C36.3872 26.6898 36.3872 26.6898 36.5122 26.8148C36.5997 26.9023 36.6497 27.0148 36.6935 27.2023C36.7435 27.4398 36.7685 27.4835 36.9872 27.6773C37.1185 27.796 37.2372 27.8835 37.2435 27.8773C37.256 27.8648 37.2685 27.5648 37.281 27.2023C37.306 26.5085 37.281 26.3398 37.1122 26.1273L37.0247 26.0148L37.1622 25.871C37.3162 25.7237 37.4192 25.531 37.456 25.321L37.481 25.1523L37.331 25.296C37.206 25.4148 37.1435 25.4398 36.9997 25.4398C36.856 25.4398 36.7997 25.4148 36.706 25.3148C36.5599 25.1742 36.3819 25.0712 36.1872 25.0148C36.1122 24.9898 36.0872 25.0023 36.0872 25.0523C36.0872 25.0898 36.0497 25.1898 35.9997 25.2835L35.9122 25.446L35.7247 25.2585C35.606 25.1523 35.4747 25.0585 35.3685 25.0335C35.1122 24.971 35.0997 24.971 35.0997 25.1648C35.0997 25.4585 34.9747 25.5148 34.7497 25.321C34.5747 25.171 34.4372 25.1335 34.106 25.1773L33.856 25.2023L33.8997 25.3148C33.9372 25.4085 33.931 25.4523 33.8497 25.5585C33.7185 25.7335 33.5497 25.8085 33.2872 25.8085C33.1622 25.8085 33.0122 25.8335 32.9497 25.8648C32.8872 25.896 32.7247 25.9273 32.5935 25.9398C32.4685 25.9523 32.3247 25.9773 32.281 25.9898C32.2185 26.0148 32.2185 25.9898 32.2372 25.8523C32.2685 25.6398 32.1122 25.4773 31.881 25.4773C31.5747 25.4773 31.4372 25.7523 31.556 26.1148C31.5803 26.193 31.6011 26.2722 31.6185 26.3523C31.7005 26.5086 31.8107 26.6484 31.9435 26.7648C32.106 26.9273 32.256 27.096 32.281 27.1398C32.3313 27.205 32.3953 27.2583 32.4685 27.296L32.606 27.371L32.5872 27.221C32.5685 27.0585 32.5997 27.0335 32.6872 27.1523C32.7185 27.1898 32.7997 27.2585 32.8622 27.296C32.9685 27.3585 32.9872 27.3585 32.9872 27.3085C32.9872 27.271 33.006 27.1898 33.031 27.1273L33.0747 27.0148L33.156 27.171C33.1997 27.2585 33.3435 27.4523 33.4747 27.6085C33.731 27.9023 33.8935 28.2335 33.8122 28.3085C33.7747 28.3398 33.6872 28.3398 33.4997 28.3023C33.3622 28.2773 33.1872 28.2585 33.1122 28.271C32.9685 28.2898 32.956 28.271 33.0497 28.1585C33.1435 28.0335 33.1247 28.0148 32.9372 28.0148C32.7185 28.0148 32.1747 27.9085 31.9622 27.8273C31.7622 27.746 31.7122 27.7648 31.6497 27.9585L31.5435 28.3085L31.481 28.496L31.706 28.4773C31.822 28.4651 31.9369 28.4443 32.0497 28.4148C32.094 28.4 32.1406 28.3937 32.1872 28.396C32.1997 28.4023 32.1685 28.4773 32.1247 28.5648L32.0372 28.7148L32.1747 28.6898C32.2497 28.671 32.3622 28.6335 32.4247 28.6023C32.5372 28.5523 32.5497 28.5523 32.6372 28.696C32.7435 28.8648 32.8247 28.8585 32.8435 28.6773C32.8622 28.4898 32.9247 28.5148 33.0435 28.7648C33.156 29.0023 33.2685 29.0898 33.2935 28.9523C33.2997 28.9023 33.356 28.8273 33.4247 28.7773C33.5622 28.6835 33.6622 28.7148 33.7185 28.8585C33.781 29.0148 33.6435 29.171 33.256 29.4085C32.8971 29.6067 32.5883 29.8843 32.3533 30.2201C32.1182 30.5559 31.963 30.941 31.8997 31.346C31.781 32.0835 32.1497 32.846 32.8747 33.4023C33.2247 33.6648 33.781 33.9398 33.7435 33.8398C33.5935 33.3835 33.5997 32.5273 33.7497 32.3835C33.7747 32.3585 33.7685 32.446 33.731 32.5773C33.606 33.071 33.6685 33.4585 33.981 34.371C34.256 35.196 34.2185 35.5523 33.8185 35.7835C33.6935 35.8585 33.6122 35.871 33.2685 35.8648C32.8935 35.8648 32.8497 35.8648 32.731 35.9648C32.5874 36.1114 32.4934 36.2994 32.4622 36.5023C32.4622 36.5835 32.5497 36.571 32.7122 36.4773H32.7185Z" fill="#FFB700" stroke="black" stroke-width="0.35"/>
<path d="M38.7811 36.4585L38.9374 36.3585L39.0436 36.4585C39.1811 36.5898 39.3499 36.5835 39.4811 36.4523C39.5436 36.3898 39.5936 36.3523 39.5999 36.3585L39.6561 36.4585C39.6874 36.5148 39.7561 36.5398 39.8811 36.5523C40.0249 36.5585 40.0686 36.5523 40.1311 36.4648L40.1936 36.3585L40.3499 36.4585C40.7749 36.7335 40.9999 36.446 40.8061 35.8773C40.7124 35.5898 40.7686 35.4273 41.0749 35.0648C41.2061 34.9085 41.3124 34.7398 41.3124 34.6898C41.3124 34.621 41.2874 34.6085 41.1124 34.6148C40.9499 34.6148 40.8999 34.596 40.8124 34.5023C40.6686 34.346 40.6811 34.1648 40.8374 33.9648L40.9624 33.8085L40.7374 33.6585C40.5578 33.5259 40.3904 33.3774 40.2374 33.2148C40.101 33.0538 39.9342 32.9212 39.7465 32.8247C39.5588 32.7282 39.354 32.6696 39.1436 32.6523L38.8499 32.621V32.846C38.8499 33.1273 38.9874 33.4023 39.3499 33.8648C39.7624 34.3898 39.7874 34.471 39.8061 35.1585L39.8249 35.7398L39.6999 35.8523C39.5936 35.9523 39.5499 35.971 39.1999 35.9898C38.8686 36.0085 38.7936 36.0273 38.6999 36.1148C38.5902 36.1948 38.5144 36.313 38.4874 36.446C38.4686 36.5398 38.4749 36.5585 38.5436 36.5585C38.5874 36.5585 38.6936 36.5148 38.7811 36.4585ZM29.8936 34.9585C29.9314 34.903 29.9531 34.8381 29.9561 34.771C29.9561 34.7085 29.9936 34.6835 30.1561 34.6585L30.3499 34.6335L30.2249 34.5273C30.0686 34.4023 30.0499 34.3085 30.1874 34.3085C30.3249 34.3085 30.5499 34.171 30.5874 34.0648C30.6061 34.0148 30.5874 33.9523 30.5624 33.921C30.4874 33.8335 30.3436 33.846 30.3186 33.946C30.2874 34.046 30.2436 34.046 30.1311 33.946C29.9749 33.7898 29.9686 33.471 30.1311 33.2835C30.1999 33.196 30.1999 33.196 30.1061 33.1023C30.0061 33.0023 29.9311 32.8148 29.9811 32.7648C29.9936 32.7523 30.0749 32.7648 30.1561 32.796C30.2811 32.8335 30.3249 32.8335 30.3749 32.796C30.5186 32.6773 30.3624 32.5273 30.1249 32.5648C30.0249 32.5773 29.9874 32.5648 29.9749 32.5148C29.9624 32.4773 29.8811 32.4273 29.7874 32.4023C29.6186 32.3585 29.6186 32.3585 29.6186 32.4773C29.6186 32.6023 29.5436 32.6273 29.4061 32.546C29.2936 32.4835 29.1874 32.5335 29.1874 32.6523C29.1874 32.7648 29.2936 32.8148 29.4999 32.8023C29.6499 32.796 29.6561 32.9085 29.5124 33.071L29.4061 33.196L29.4874 33.3148C29.6124 33.4898 29.5999 33.7835 29.4686 33.9335L29.3624 34.046L29.2936 33.9523C29.1936 33.8273 29.0624 33.8335 29.0249 33.971C29.0061 34.0585 29.0249 34.096 29.1374 34.196C29.2124 34.2585 29.3249 34.3085 29.3811 34.3085C29.5249 34.3085 29.5186 34.4273 29.3686 34.5398L29.2436 34.6335L29.4311 34.6585C29.5311 34.6773 29.6186 34.7023 29.6186 34.721C29.6186 34.8023 29.7436 35.046 29.7811 35.046C29.8061 35.046 29.8561 35.0023 29.8936 34.9523V34.9585Z" fill="#FFB700" stroke="black" stroke-width="0.35"/>
<path d="M32.2811 33.9211C32.4498 33.8586 32.8123 33.5461 32.8123 33.4773C32.8123 33.4523 32.7123 33.3398 32.5873 33.2273C32.3373 33.0023 32.0561 32.6086 31.9811 32.3836C31.9436 32.2586 31.7623 32.0586 31.2498 31.5586L30.5686 30.9023L30.3748 30.9523C30.2623 30.9773 30.1311 31.0023 30.0811 31.0023C29.9873 31.0023 29.9873 31.0023 30.1123 31.1023L30.2373 31.2023L30.4248 31.1023C30.5936 31.0023 30.5998 31.0023 30.6186 31.0836C30.6311 31.1273 30.6061 31.2086 30.5561 31.2648C30.5123 31.3211 30.4873 31.3898 30.4936 31.4086C30.5123 31.4273 30.4686 31.4711 30.3998 31.5086C30.2748 31.5711 30.1811 31.7773 30.2811 31.7773C30.3748 31.7773 30.5748 31.5273 30.5498 31.4461C30.5373 31.4023 30.5498 31.3586 30.5623 31.3461C30.6436 31.3023 30.6373 31.4961 30.5623 31.5961C30.5123 31.6461 30.4873 31.7086 30.4998 31.7336C30.5123 31.7523 30.4686 31.7961 30.3998 31.8336C30.2748 31.8961 30.1811 32.1023 30.2811 32.1023C30.3811 32.1023 30.5748 31.8648 30.5561 31.7773C30.5436 31.7336 30.5436 31.6836 30.5623 31.6711C30.6186 31.6461 30.6436 31.7961 30.5998 31.8711C30.5883 31.8922 30.5823 31.9158 30.5823 31.9398C30.5823 31.9639 30.5883 31.9875 30.5998 32.0086C30.6436 32.0898 30.5998 32.2398 30.5186 32.2898C30.4873 32.3086 30.5061 32.3523 30.5936 32.4148C30.7186 32.5023 30.7186 32.5148 30.7186 32.9148C30.7186 33.2523 30.7311 33.3398 30.7936 33.3961C30.8561 33.4586 30.8686 33.4586 30.8686 33.3961C30.8686 33.3336 30.9936 33.2461 31.0873 33.2461C31.1186 33.2461 31.2998 33.4023 31.4936 33.5898C31.6873 33.7773 31.8936 33.9461 31.9498 33.9523L32.0873 33.9773C32.1061 33.9773 32.1936 33.9586 32.2811 33.9148V33.9211ZM30.1998 32.2898C30.1998 32.1836 29.9748 32.0648 29.7061 32.0398C29.4873 32.0086 29.4873 32.0148 29.4873 32.1211C29.4873 32.2086 29.5186 32.2461 29.6748 32.3086C29.9123 32.4148 30.1998 32.4023 30.1998 32.2898Z" fill="#FFB700" stroke="black" stroke-width="0.35"/>
<path d="M30.4437 32.2774C30.5562 32.1774 30.6062 32.0649 30.5374 32.0649C30.4624 32.0649 30.2624 32.2399 30.2624 32.3149C30.2624 32.4149 30.2999 32.4087 30.4499 32.2774H30.4437ZM30.2124 31.9587C30.2187 31.8962 30.1812 31.8587 30.0687 31.8024C29.8187 31.6962 29.5312 31.6399 29.4624 31.6962C29.3312 31.8024 29.4187 31.9399 29.6249 31.9649C29.7124 31.9712 29.8249 31.9962 29.8812 32.0212C30.0437 32.0837 30.1937 32.0524 30.2124 31.9587ZM30.2124 31.6274C30.2249 31.5462 30.1687 31.5149 29.7124 31.3524C29.3687 31.2274 29.2187 31.2899 29.3312 31.4962C29.3687 31.5649 29.4312 31.5962 29.5749 31.6212C29.6812 31.6337 29.8249 31.6649 29.8937 31.6899C30.0812 31.7524 30.1937 31.7274 30.2062 31.6274H30.2124ZM30.4374 31.3212C30.5062 31.2524 30.5624 31.1712 30.5624 31.1337C30.5624 31.0399 30.2937 31.2149 30.2562 31.3399C30.2187 31.4837 30.2874 31.4774 30.4437 31.3212H30.4374ZM30.2124 31.3024C30.2249 31.2024 30.0624 31.1149 29.7374 31.0462C29.4937 30.9899 29.3874 31.0212 29.4062 31.1337C29.4187 31.1962 29.4999 31.2399 29.7187 31.3087C30.0874 31.4212 30.1937 31.4212 30.2124 31.3024ZM30.5249 30.8399C30.9499 30.6524 30.9812 30.1837 30.5874 30.0587C30.4249 30.0087 30.3249 30.0399 30.2624 30.1462C30.2124 30.2337 30.2437 30.3837 30.3062 30.3837C30.3312 30.3837 30.3499 30.4149 30.3499 30.4462C30.3499 30.6149 29.7124 30.6837 29.4499 30.5524C29.3562 30.5087 29.3249 30.3837 29.3937 30.3837C29.4562 30.3837 29.4937 30.2587 29.4624 30.1774C29.4249 30.0524 29.2999 30.0149 29.1312 30.0649C28.7374 30.1649 28.7499 30.6274 29.1499 30.8149C29.5925 30.9773 30.0768 30.9861 30.5249 30.8399Z" fill="#FFB700" stroke="black" stroke-width="0.35"/>
<path d="M30.2687 30.4773C30.2937 30.4523 30.2812 30.4148 30.2437 30.3898C30.1562 30.3211 30.1624 30.2148 30.2562 30.0961C30.3312 30.0086 30.3374 29.8711 30.3624 28.5273C30.4062 26.2086 30.5812 24.4648 30.8062 24.0398C30.8999 23.8773 30.8874 23.8773 30.6499 24.0398C30.3383 24.2569 30.0868 24.5493 29.9187 24.8898C29.5312 25.6086 29.3999 26.5773 29.3999 28.6523C29.3999 29.8273 29.4062 29.9836 29.4749 30.0898C29.5374 30.2023 29.5374 30.2398 29.4999 30.3523C29.4687 30.4211 29.4562 30.4961 29.4687 30.5086C29.5562 30.5898 30.1812 30.5711 30.2687 30.4773ZM33.7749 28.2648C33.7937 28.2461 33.7624 28.1398 33.7124 28.0398C33.6374 27.8773 33.6062 27.8523 33.4999 27.8523C33.0001 27.8089 32.5128 27.6733 32.0624 27.4523C31.7437 27.3086 31.6249 27.2773 31.5937 27.3148C31.4937 27.4086 31.6562 27.6273 31.9062 27.7461C32.274 27.8787 32.6594 27.9566 33.0499 27.9773C33.2187 27.9773 33.2249 27.9773 33.1249 28.1211L33.0624 28.2211H33.2499L33.5624 28.2586C33.7499 28.3023 33.7499 28.3023 33.7749 28.2648Z" fill="#FFB700" stroke="black" stroke-width="0.35"/>
<path d="M35.75 29.3087C35.75 29.2462 35.5687 29.0899 35.3937 28.9837C35.25 28.9024 35.225 28.8962 35.225 28.9649C35.225 29.0649 35.1375 29.3212 35.1 29.3212C35.0812 29.3212 35.05 29.2712 35.0375 29.2149C35.0187 29.1524 34.95 29.0274 34.8812 28.9462L34.7562 28.7899L34.6687 28.9337C34.5812 29.0712 34.425 29.2024 34.3562 29.2024C34.3437 29.2024 34.3375 29.1274 34.3562 29.0462C34.3625 28.9462 34.3562 28.8712 34.325 28.8587C34.3 28.8399 34.275 28.8462 34.275 28.8712C34.275 28.9212 34.0625 29.1587 34.025 29.1587C34 29.1587 33.975 29.0962 33.9625 29.0087L33.9125 28.7087C33.9 28.6337 33.9312 28.6837 33.975 28.8337L34.075 29.0899L34.175 28.9337C34.2203 28.8691 34.2541 28.7972 34.275 28.7212C34.275 28.6899 34.2937 28.6774 34.3187 28.6899C34.3437 28.7024 34.375 28.8087 34.3875 28.9212L34.4187 29.1337L34.5312 29.0087C34.5901 28.946 34.6444 28.8792 34.6937 28.8087C34.7375 28.7337 34.7437 28.7337 34.8375 28.8087C34.8875 28.8587 34.9687 28.9649 35.0187 29.0524C35.0687 29.1399 35.1125 29.2024 35.1187 29.1962L35.1562 28.9962L35.1812 28.8087C35.1875 28.7774 35.5187 28.9962 35.6437 29.1024C35.7187 29.1712 35.7937 29.2212 35.8062 29.2087C35.8187 29.1962 35.8312 29.0962 35.8312 28.9774C35.8312 28.8024 35.8125 28.7524 35.7062 28.6587C35.5812 28.5462 35.5812 28.5462 35.5312 28.6274C35.4687 28.7337 35.4 28.7337 35.4 28.6274C35.4 28.5524 35.1625 28.2587 35.1062 28.2587C35.0875 28.2587 35.0375 28.3212 34.9937 28.4024C34.95 28.4837 34.9 28.5462 34.8875 28.5462C34.825 28.5462 34.4937 28.1712 34.4937 28.1087C34.4937 28.0587 34.5187 28.0712 34.575 28.1587C34.6308 28.2408 34.6958 28.3163 34.7687 28.3837C34.8937 28.4962 34.9437 28.4712 34.9937 28.2524C35.0125 28.1899 35.0375 28.1399 35.0562 28.1399C35.1062 28.1399 35.3937 28.4462 35.4312 28.5462L35.475 28.6462L35.5062 28.5337C35.5437 28.3962 35.5875 28.3962 35.65 28.5212C35.675 28.5712 35.8 28.6837 35.925 28.7587L36.1562 28.9087L36.2 28.7587C36.225 28.6774 36.2625 28.6337 36.275 28.6587C36.3 28.6899 36.2375 28.9399 36.1937 28.9899C36.1937 28.9962 36.1125 28.9524 36.0312 28.8962L35.875 28.7837V28.9837C35.875 29.0899 35.8625 29.2212 35.85 29.2712C35.8187 29.3712 35.7437 29.3962 35.7437 29.3087H35.75ZM34.5937 27.7212C34.3187 27.4962 34.2812 27.4462 34.2812 27.3337L34.2875 27.2212L34.3062 27.3274C34.3187 27.3899 34.3937 27.4899 34.4812 27.5649L34.6437 27.6899L34.7375 27.5774C34.7937 27.5149 34.8375 27.4399 34.8375 27.4149C34.8375 27.3399 34.85 27.3462 35.0375 27.5087C35.2 27.6524 35.2062 27.6524 35.225 27.5587C35.2437 27.5087 35.2375 27.4087 35.225 27.3399C35.1625 27.1524 35.175 27.1274 35.2562 27.2399L35.4062 27.4149C35.4687 27.4837 35.475 27.4837 35.5 27.3962C35.5187 27.3399 35.5312 27.2462 35.5312 27.1837V27.0649L35.675 27.2337C35.8187 27.3962 35.8312 27.4024 35.8687 27.3212C35.9 27.2774 35.9187 27.1712 35.9187 27.0899C35.9187 26.9774 35.9312 26.9524 35.9562 26.9899C36.0062 27.0649 35.975 27.2524 35.8875 27.4149L35.825 27.5399L35.7437 27.4087C35.6375 27.2462 35.6 27.2462 35.5375 27.4212C35.475 27.5899 35.4312 27.6024 35.3687 27.4712C35.3312 27.3899 35.3187 27.4024 35.2937 27.5774L35.2625 27.7649L35.075 27.6212L34.8875 27.4774L34.7937 27.5712C34.75 27.6274 34.7125 27.6962 34.7125 27.7212C34.7125 27.7837 34.6625 27.7837 34.5937 27.7212ZM37.0312 26.8712C36.9375 26.7837 36.8687 26.6962 36.8812 26.6837C36.9 26.6649 36.9125 26.6587 36.9187 26.6712C36.9792 26.7357 37.0418 26.7982 37.1062 26.8587C37.3187 27.0837 37.275 27.0899 37.0375 26.8712H37.0312ZM33.7812 26.5337C33.6937 26.4087 33.7 26.3337 33.8125 26.1962C33.8875 26.1024 33.925 26.0899 34.0625 26.1087C34.1562 26.1149 34.35 26.1962 34.4937 26.2837C34.7015 26.4078 34.9392 26.4726 35.1812 26.4712L35.075 26.2962C34.9375 26.0899 34.9375 26.0649 35.1 26.1899C35.2625 26.3212 35.4562 26.3587 35.8937 26.3462L36.1062 26.3399L35.9812 26.2149C35.8125 26.0462 35.8625 26.0274 36.0562 26.1962C36.2312 26.3524 36.225 26.3649 35.8437 26.4024C35.6848 26.4185 35.5242 26.4079 35.3687 26.3712C35.1562 26.3087 35.1437 26.3149 35.1875 26.3837C35.2125 26.4274 35.25 26.4587 35.2687 26.4587C35.2937 26.4587 35.3125 26.4837 35.3125 26.5087C35.3125 26.5899 34.85 26.5149 34.625 26.4087C34.125 26.1524 34.0625 26.1274 33.9375 26.1649C33.9042 26.1777 33.8738 26.1971 33.848 26.2217C33.8223 26.2464 33.8017 26.276 33.7875 26.3087C33.7062 26.5149 34 26.6774 34.1187 26.4962C34.1562 26.4399 34.15 26.4087 34.0875 26.3399C34 26.2524 34.0125 26.2399 34.125 26.2774C34.2062 26.3087 34.2125 26.5024 34.1375 26.5774C34.0562 26.6587 33.8562 26.6399 33.7812 26.5337Z" fill="black" stroke="black" stroke-width="0.35"/>
<path d="M35.7749 26.0273C35.7124 25.9648 35.7624 25.9523 36.0437 25.946C36.3937 25.9398 36.6062 25.8835 36.8562 25.721C37.0562 25.596 37.1124 25.621 36.9187 25.7523C36.7499 25.8773 36.4812 25.9648 36.2124 25.9898L35.8937 26.0335C35.8437 26.046 35.7874 26.0398 35.7687 26.0273H35.7749Z" fill="black" stroke="black" stroke-width="0.35"/>
<path d="M32.7185 36.4773L32.8622 36.3898L32.9247 36.4773C33.006 36.5898 33.2372 36.5835 33.3872 36.4773L33.506 36.3835L33.606 36.471C33.731 36.5898 33.9685 36.5898 34.1247 36.471C34.231 36.396 34.2497 36.3898 34.3122 36.4523C34.356 36.4898 34.481 36.5273 34.5872 36.546C34.7872 36.571 34.7872 36.571 34.8997 36.396C34.9997 36.2523 35.0122 36.196 34.9935 36.0523C34.976 35.9425 34.9635 35.832 34.956 35.721C34.9435 35.5585 34.9497 35.5585 35.181 35.471C35.2957 35.4358 35.4084 35.3941 35.5185 35.346C35.6122 35.2898 35.8747 34.9835 35.8747 34.921C35.8747 34.9085 35.7747 34.8835 35.6497 34.871C35.1497 34.8085 35.0685 34.546 35.3935 34.0585C35.9122 33.246 36.231 32.4648 36.231 31.971C36.231 31.746 36.2497 31.671 36.2747 31.721C36.3935 31.9148 36.181 32.746 35.8685 33.346L35.7435 33.5835L35.8622 33.5585C35.9247 33.5398 36.3247 33.371 36.7372 33.1835C37.8747 32.671 38.2622 32.571 38.9997 32.6023C39.6185 32.6273 39.8747 32.746 40.3122 33.2023C40.5435 33.4523 40.7685 33.621 41.1747 33.8773C42.0372 34.4148 42.0747 34.4648 42.1185 35.1023C42.1622 35.746 42.1372 35.7835 41.6497 35.8898C41.231 35.9835 40.9685 36.1773 40.8997 36.4523C40.8622 36.5898 40.9435 36.596 41.1497 36.4585L41.306 36.3585L41.3747 36.4585C41.4685 36.5898 41.656 36.5898 41.8122 36.4585L41.9372 36.3648L42.0622 36.4585C42.2497 36.6148 42.4997 36.5773 42.5747 36.3835C42.5872 36.3523 42.6247 36.3585 42.6997 36.4273C42.8435 36.5523 43.1997 36.6023 43.2372 36.5023C43.2497 36.4648 43.2247 36.3773 43.1747 36.3023C42.9685 35.9898 42.8997 35.846 42.8997 35.6773C42.8997 35.4398 42.9622 35.321 43.2372 35.1335C43.5622 34.896 43.6622 34.596 43.4122 34.596C43.2622 34.596 43.106 34.4585 43.006 34.2398C42.806 33.7898 42.8497 33.2898 43.1497 32.4523C43.3797 31.9595 43.4951 31.421 43.4872 30.8773C43.4872 30.4148 43.4747 30.3398 43.3747 30.0835C43.2965 29.9054 43.2001 29.7357 43.0872 29.5773L42.9122 29.346L43.131 29.1585C43.806 28.6023 43.6685 27.6898 42.856 27.3398C42.606 27.2273 42.5435 27.221 42.106 27.221C41.856 27.221 41.4497 27.2585 41.231 27.3023C40.9373 27.3487 40.6407 27.3738 40.3435 27.3773C39.9185 27.3773 39.8435 27.3648 39.681 27.2773C39.5122 27.1898 39.481 27.146 39.4497 26.9335C39.4467 26.9135 39.4389 26.8945 39.4269 26.8782C39.4149 26.8618 39.3992 26.8487 39.381 26.8398C39.3185 26.821 39.056 27.0523 39.0185 27.1523C38.9935 27.2085 38.981 27.2023 38.9247 27.1335C38.8717 27.0654 38.8295 26.9895 38.7997 26.9085C38.7372 26.7023 38.8185 26.5523 39.0622 26.4335L39.2497 26.346L39.1372 26.2773C38.9122 26.1335 38.5247 26.2335 38.3872 26.4648C38.3435 26.5273 38.2997 26.5898 38.2872 26.5898C38.2747 26.5898 38.1997 26.5273 38.1247 26.446C37.831 26.1585 37.931 25.7335 38.3247 25.6085C38.531 25.5398 38.7185 25.5898 38.756 25.7335C38.8185 25.9398 38.9935 25.6648 38.9622 25.4085C38.9435 25.2398 38.9435 25.2335 39.0622 25.2335C39.2247 25.2335 39.5622 25.446 39.6747 25.6085C39.7997 25.8023 39.7872 26.1085 39.6497 26.3335L39.5435 26.5085L39.6872 26.4835C39.8872 26.4398 40.0872 26.3148 40.1872 26.1585C40.2399 26.059 40.2695 25.9489 40.2738 25.8364C40.2782 25.7239 40.2571 25.6118 40.2122 25.5085C40.1185 25.3398 40.131 25.3148 40.2685 25.371C40.4935 25.4648 40.6185 25.571 40.706 25.7523C40.7935 25.9148 40.7997 25.9523 40.756 26.1273C40.726 26.2338 40.6796 26.3351 40.6185 26.4273C40.5435 26.5273 40.5372 26.546 40.5997 26.546C40.7122 26.546 40.9372 26.4398 41.0185 26.3585C41.0622 26.3085 41.1247 26.2023 41.156 26.1085L41.2185 25.9523L41.281 26.0773C41.3747 26.246 41.5622 26.4023 41.7872 26.5023C42.031 26.6023 42.131 26.6085 42.006 26.5148C41.9185 26.4523 41.756 25.9835 41.8122 25.9398C42.0819 26.0908 42.3283 26.2803 42.5435 26.5023C42.8997 26.821 43.1247 26.9273 43.4497 26.9273C43.8685 26.9273 44.1122 26.5648 43.9247 26.221C43.8185 26.021 43.5747 25.9898 43.4247 26.1585C43.3622 26.2398 43.3435 26.3023 43.3622 26.3898C43.3872 26.4898 43.381 26.5023 43.2872 26.5023C43.1622 26.5023 42.9247 26.346 42.4997 25.9898C41.9081 25.4807 41.2281 25.0845 40.4935 24.821C39.9958 24.706 39.4818 24.6785 38.9747 24.7398C38.5747 24.8148 38.0997 25.046 37.8372 25.2898C37.381 25.7273 37.3747 26.3085 37.8185 26.8398L37.9435 26.9898L37.8622 27.1273C37.8011 27.2258 37.7708 27.3403 37.7753 27.4561C37.7797 27.5719 37.8187 27.6838 37.8872 27.7773C37.9497 27.8648 38.0122 27.9335 38.031 27.9335C38.0435 27.9335 38.056 27.8773 38.0622 27.8085C38.0747 27.6398 38.1497 27.5273 38.2747 27.4835C38.3872 27.4398 38.4622 27.4648 38.9747 27.671C39.5185 27.8835 40.4122 27.896 41.3622 27.7085C41.774 27.6134 42.2024 27.6177 42.6122 27.721C43.0622 27.9085 43.1622 28.3898 42.8372 28.7523C42.6935 28.9148 42.5622 28.9773 42.106 29.1023C41.7087 29.207 41.2958 29.2388 40.8872 29.196C40.2122 29.1898 39.9685 29.2023 39.6997 29.2585C39.3935 29.321 39.2122 29.3273 38.3372 29.3085L37.3185 29.2835L37.431 29.371C37.4912 29.4245 37.556 29.4726 37.6247 29.5148C37.706 29.5585 37.6997 29.5648 37.5872 29.6085C37.5247 29.6335 37.3747 29.6523 37.256 29.6523H37.0497L37.0247 29.8273C37.0079 29.9098 37.0079 29.9948 37.0247 30.0773C37.0497 30.1398 37.0372 30.1523 36.9747 30.1273C36.931 30.1085 36.8122 30.0773 36.706 30.0585C36.5988 30.0355 36.4941 30.0021 36.3935 29.9585C36.2747 29.896 36.2622 29.896 36.2185 29.9773C36.181 30.0398 35.831 30.3023 35.781 30.3023C35.7584 30.1401 35.712 29.9822 35.6435 29.8335C35.581 29.7023 35.5247 29.5523 35.506 29.5085C35.4872 29.4398 35.4747 29.4335 35.4435 29.4898C35.4247 29.521 35.3997 29.6148 35.381 29.6898C35.3591 29.791 35.3211 29.8881 35.2685 29.9773L35.1747 30.1148L35.1122 29.996C35.0497 29.871 34.9497 29.7335 34.9122 29.7335C34.8997 29.7335 34.881 29.771 34.8685 29.8273C34.8372 29.9273 34.5935 30.221 34.531 30.221C34.5122 30.221 34.4935 30.1398 34.4935 30.0335C34.4935 29.9398 34.4747 29.8523 34.4497 29.8523C34.4247 29.8523 34.406 29.8835 34.406 29.9148C34.406 29.9898 34.1997 30.2273 34.1247 30.2273C34.0997 30.2273 34.0497 30.2523 34.0185 30.2898C33.9435 30.371 33.881 30.3585 33.9122 30.2648C33.921 30.1847 33.9124 30.1038 33.8872 30.0273L33.8247 29.8273C33.8122 29.796 33.7372 29.8085 33.5747 29.8585C33.3247 29.9398 33.2372 29.921 33.3685 29.821C33.4185 29.7835 33.4935 29.6523 33.531 29.5335C33.5747 29.4085 33.6372 29.3023 33.6685 29.2898C33.7122 29.2773 33.7122 29.2898 33.656 29.3648C33.6198 29.4123 33.5961 29.4682 33.5872 29.5273C33.5872 29.5585 33.556 29.6398 33.5247 29.7085C33.4872 29.771 33.4622 29.8335 33.4685 29.8398C33.4747 29.846 33.5747 29.8085 33.6872 29.7585L33.8872 29.6585V29.746C33.8872 29.796 33.9122 29.921 33.9435 30.0273L33.9997 30.2148L34.1372 30.1523C34.2747 30.0898 34.406 29.8648 34.406 29.6835C34.406 29.596 34.456 29.6085 34.481 29.7023C34.481 29.7273 34.5185 29.8335 34.5435 29.9335L34.606 30.1085L34.6997 29.996C34.756 29.9335 34.8185 29.8085 34.8435 29.7273C34.8935 29.5773 34.9685 29.5085 34.9685 29.621C34.9685 29.696 35.181 29.9835 35.2185 29.9585C35.2435 29.946 35.281 29.8398 35.3122 29.721C35.3747 29.471 35.4685 29.3085 35.531 29.346C35.556 29.3585 35.5622 29.3835 35.5497 29.4085C35.5372 29.421 35.5872 29.5835 35.6622 29.7585C35.7165 29.8897 35.7707 30.021 35.8247 30.1523C35.8497 30.2148 35.8747 30.2148 36.031 30.071C36.1247 29.9835 36.2185 29.8898 36.2247 29.8585C36.2435 29.8085 36.2622 29.8148 36.3497 29.871C36.534 29.9684 36.7358 30.0279 36.9435 30.046C36.956 30.0335 36.9685 29.921 36.9685 29.796L36.9747 29.5648L37.0997 29.5898C37.1622 29.6085 37.306 29.6085 37.4122 29.5898L37.5997 29.5648L37.431 29.4398C37.3372 29.3773 37.2435 29.296 37.2185 29.2585C37.1997 29.221 37.1122 29.1835 37.0185 29.1773C36.7622 29.1523 36.306 28.9023 36.306 28.7773C36.306 28.7523 36.3685 28.796 36.4435 28.8648C36.6185 29.021 36.856 29.1148 37.0685 29.1148H37.2185L37.1247 28.9898C37.0579 28.8929 37.0151 28.7815 36.9997 28.6648C36.9872 28.4773 36.9685 28.4523 36.7747 28.321C36.6624 28.2414 36.5577 28.1515 36.4622 28.0523L36.356 27.9335L36.2997 28.0773C36.2685 28.1585 36.2372 28.221 36.2185 28.221C36.206 28.221 36.1435 28.171 36.0935 28.1148C36.0583 28.074 36.0159 28.0401 35.9685 28.0148C35.9497 28.0148 35.906 28.0898 35.856 28.1835L35.7685 28.3523L35.706 28.2585C35.6504 28.1819 35.5876 28.1107 35.5185 28.046C35.4435 27.9835 35.4122 27.9335 35.4372 27.9335C35.4622 27.9335 35.5435 27.996 35.6247 28.0773L35.7622 28.221L35.8247 28.1148C35.8608 28.0412 35.8718 27.9577 35.856 27.8773C35.831 27.7648 35.8372 27.7585 35.8747 27.8335C35.9286 27.9041 35.9917 27.9671 36.0622 28.021L36.1997 28.1335L36.2935 27.9648C36.3872 27.7898 36.3872 27.7898 36.4247 27.896C36.4872 28.0273 36.8935 28.3648 37.2372 28.5585C37.2997 28.5898 37.2747 28.4898 37.1747 28.246C37.1447 28.1659 37.1278 28.0815 37.1247 27.996C37.1247 27.8835 37.0935 27.8335 36.9497 27.721C36.8603 27.6639 36.7856 27.5867 36.7313 27.4955C36.677 27.4044 36.6448 27.3018 36.6372 27.196C36.6185 27.0898 36.581 26.9773 36.5497 26.9398C36.5122 26.8773 36.4997 26.9148 36.5122 27.1023C36.5247 27.2335 36.506 27.396 36.4747 27.4648L36.4247 27.5898L36.3872 27.4835C36.3622 27.4273 36.2622 27.3273 36.1685 27.2648C36.0747 27.2023 36.006 27.1398 36.0185 27.1273C36.031 27.1148 36.131 27.171 36.2372 27.2523C36.406 27.3835 36.4372 27.396 36.4622 27.3398C36.4872 27.2773 36.4622 26.9898 36.4122 26.7898C36.3872 26.6898 36.3872 26.6898 36.5122 26.8148C36.5997 26.9023 36.6497 27.0148 36.6935 27.2023C36.7435 27.4398 36.7685 27.4835 36.9872 27.6773C37.1185 27.796 37.2372 27.8835 37.2435 27.8773C37.256 27.8648 37.2685 27.5648 37.281 27.2023C37.306 26.5085 37.281 26.3398 37.1122 26.1273L37.0247 26.0148L37.1622 25.871C37.3162 25.7237 37.4192 25.531 37.456 25.321L37.481 25.1523L37.331 25.296C37.206 25.4148 37.1435 25.4398 36.9997 25.4398C36.856 25.4398 36.7997 25.4148 36.706 25.3148C36.5599 25.1742 36.3819 25.0712 36.1872 25.0148C36.1122 24.9898 36.0872 25.0023 36.0872 25.0523C36.0872 25.0898 36.0497 25.1898 35.9997 25.2835L35.9122 25.446L35.7247 25.2585C35.606 25.1523 35.4747 25.0585 35.3685 25.0335C35.1122 24.971 35.0997 24.971 35.0997 25.1648C35.0997 25.4585 34.9747 25.5148 34.7497 25.321C34.5747 25.171 34.4372 25.1335 34.106 25.1773L33.856 25.2023L33.8997 25.3148C33.9372 25.4085 33.931 25.4523 33.8497 25.5585C33.7185 25.7335 33.5497 25.8085 33.2872 25.8085C33.1622 25.8085 33.0122 25.8335 32.9497 25.8648C32.8872 25.896 32.7247 25.9273 32.5935 25.9398C32.4685 25.9523 32.3247 25.9773 32.281 25.9898C32.2185 26.0148 32.2185 25.9898 32.2372 25.8523C32.2685 25.6398 32.1122 25.4773 31.881 25.4773C31.5747 25.4773 31.4372 25.7523 31.556 26.1148C31.5803 26.193 31.6011 26.2722 31.6185 26.3523C31.7005 26.5086 31.8107 26.6484 31.9435 26.7648C32.106 26.9273 32.256 27.096 32.281 27.1398C32.3313 27.205 32.3953 27.2583 32.4685 27.296L32.606 27.371L32.5872 27.221C32.5685 27.0585 32.5997 27.0335 32.6872 27.1523C32.7185 27.1898 32.7997 27.2585 32.8622 27.296C32.9685 27.3585 32.9872 27.3585 32.9872 27.3085C32.9872 27.271 33.006 27.1898 33.031 27.1273L33.0747 27.0148L33.156 27.171C33.1997 27.2585 33.3435 27.4523 33.4747 27.6085C33.731 27.9023 33.8935 28.2335 33.8122 28.3085C33.7747 28.3398 33.6872 28.3398 33.4997 28.3023C33.3622 28.2773 33.1872 28.2585 33.1122 28.271C32.9685 28.2898 32.956 28.271 33.0497 28.1585C33.1435 28.0335 33.1247 28.0148 32.9372 28.0148C32.7185 28.0148 32.1747 27.9085 31.9622 27.8273C31.7622 27.746 31.7122 27.7648 31.6497 27.9585L31.5435 28.3085L31.481 28.496L31.706 28.4773C31.822 28.4651 31.9369 28.4443 32.0497 28.4148C32.094 28.4 32.1406 28.3937 32.1872 28.396C32.1997 28.4023 32.1685 28.4773 32.1247 28.5648L32.0372 28.7148L32.1747 28.6898C32.2497 28.671 32.3622 28.6335 32.4247 28.6023C32.5372 28.5523 32.5497 28.5523 32.6372 28.696C32.7435 28.8648 32.8247 28.8585 32.8435 28.6773C32.8622 28.4898 32.9247 28.5148 33.0435 28.7648C33.156 29.0023 33.2685 29.0898 33.2935 28.9523C33.2997 28.9023 33.356 28.8273 33.4247 28.7773C33.5622 28.6835 33.6622 28.7148 33.7185 28.8585C33.781 29.0148 33.6435 29.171 33.256 29.4085C32.8971 29.6067 32.5883 29.8843 32.3533 30.2201C32.1182 30.5559 31.963 30.941 31.8997 31.346C31.781 32.0835 32.1497 32.846 32.8747 33.4023C33.2247 33.6648 33.781 33.9398 33.7435 33.8398C33.5935 33.3835 33.5997 32.5273 33.7497 32.3835C33.7747 32.3585 33.7685 32.446 33.731 32.5773C33.606 33.071 33.6685 33.4585 33.981 34.371C34.256 35.196 34.2185 35.5523 33.8185 35.7835C33.6935 35.8585 33.6122 35.871 33.2685 35.8648C32.8935 35.8648 32.8497 35.8648 32.731 35.9648C32.5874 36.1114 32.4934 36.2994 32.4622 36.5023C32.4622 36.5835 32.5497 36.571 32.7122 36.4773H32.7185Z" fill="#FFB700"/>
<path d="M38.7811 36.4585L38.9374 36.3585L39.0436 36.4585C39.1811 36.5898 39.3499 36.5835 39.4811 36.4523C39.5436 36.3898 39.5936 36.3523 39.5999 36.3585L39.6561 36.4585C39.6874 36.5148 39.7561 36.5398 39.8811 36.5523C40.0249 36.5585 40.0686 36.5523 40.1311 36.4648L40.1936 36.3585L40.3499 36.4585C40.7749 36.7335 40.9999 36.446 40.8061 35.8773C40.7124 35.5898 40.7686 35.4273 41.0749 35.0648C41.2061 34.9085 41.3124 34.7398 41.3124 34.6898C41.3124 34.621 41.2874 34.6085 41.1124 34.6148C40.9499 34.6148 40.8999 34.596 40.8124 34.5023C40.6686 34.346 40.6811 34.1648 40.8374 33.9648L40.9624 33.8085L40.7374 33.6585C40.5578 33.5259 40.3904 33.3774 40.2374 33.2148C40.101 33.0538 39.9342 32.9212 39.7465 32.8247C39.5588 32.7282 39.354 32.6696 39.1436 32.6523L38.8499 32.621V32.846C38.8499 33.1273 38.9874 33.4023 39.3499 33.8648C39.7624 34.3898 39.7874 34.471 39.8061 35.1585L39.8249 35.7398L39.6999 35.8523C39.5936 35.9523 39.5499 35.971 39.1999 35.9898C38.8686 36.0085 38.7936 36.0273 38.6999 36.1148C38.5902 36.1948 38.5144 36.313 38.4874 36.446C38.4686 36.5398 38.4749 36.5585 38.5436 36.5585C38.5874 36.5585 38.6936 36.5148 38.7811 36.4585ZM29.8936 34.9585C29.9314 34.903 29.9531 34.8381 29.9561 34.771C29.9561 34.7085 29.9936 34.6835 30.1561 34.6585L30.3499 34.6335L30.2249 34.5273C30.0686 34.4023 30.0499 34.3085 30.1874 34.3085C30.3249 34.3085 30.5499 34.171 30.5874 34.0648C30.6061 34.0148 30.5874 33.9523 30.5624 33.921C30.4874 33.8335 30.3436 33.846 30.3186 33.946C30.2874 34.046 30.2436 34.046 30.1311 33.946C29.9749 33.7898 29.9686 33.471 30.1311 33.2835C30.1999 33.196 30.1999 33.196 30.1061 33.1023C30.0061 33.0023 29.9311 32.8148 29.9811 32.7648C29.9936 32.7523 30.0749 32.7648 30.1561 32.796C30.2811 32.8335 30.3249 32.8335 30.3749 32.796C30.5186 32.6773 30.3624 32.5273 30.1249 32.5648C30.0249 32.5773 29.9874 32.5648 29.9749 32.5148C29.9624 32.4773 29.8811 32.4273 29.7874 32.4023C29.6186 32.3585 29.6186 32.3585 29.6186 32.4773C29.6186 32.6023 29.5436 32.6273 29.4061 32.546C29.2936 32.4835 29.1874 32.5335 29.1874 32.6523C29.1874 32.7648 29.2936 32.8148 29.4999 32.8023C29.6499 32.796 29.6561 32.9085 29.5124 33.071L29.4061 33.196L29.4874 33.3148C29.6124 33.4898 29.5999 33.7835 29.4686 33.9335L29.3624 34.046L29.2936 33.9523C29.1936 33.8273 29.0624 33.8335 29.0249 33.971C29.0061 34.0585 29.0249 34.096 29.1374 34.196C29.2124 34.2585 29.3249 34.3085 29.3811 34.3085C29.5249 34.3085 29.5186 34.4273 29.3686 34.5398L29.2436 34.6335L29.4311 34.6585C29.5311 34.6773 29.6186 34.7023 29.6186 34.721C29.6186 34.8023 29.7436 35.046 29.7811 35.046C29.8061 35.046 29.8561 35.0023 29.8936 34.9523V34.9585Z" fill="#FFB700"/>
<path d="M32.2811 33.9211C32.4498 33.8586 32.8123 33.5461 32.8123 33.4773C32.8123 33.4523 32.7123 33.3398 32.5873 33.2273C32.3373 33.0023 32.0561 32.6086 31.9811 32.3836C31.9436 32.2586 31.7623 32.0586 31.2498 31.5586L30.5686 30.9023L30.3748 30.9523C30.2623 30.9773 30.1311 31.0023 30.0811 31.0023C29.9873 31.0023 29.9873 31.0023 30.1123 31.1023L30.2373 31.2023L30.4248 31.1023C30.5936 31.0023 30.5998 31.0023 30.6186 31.0836C30.6311 31.1273 30.6061 31.2086 30.5561 31.2648C30.5123 31.3211 30.4873 31.3898 30.4936 31.4086C30.5123 31.4273 30.4686 31.4711 30.3998 31.5086C30.2748 31.5711 30.1811 31.7773 30.2811 31.7773C30.3748 31.7773 30.5748 31.5273 30.5498 31.4461C30.5373 31.4023 30.5498 31.3586 30.5623 31.3461C30.6436 31.3023 30.6373 31.4961 30.5623 31.5961C30.5123 31.6461 30.4873 31.7086 30.4998 31.7336C30.5123 31.7523 30.4686 31.7961 30.3998 31.8336C30.2748 31.8961 30.1811 32.1023 30.2811 32.1023C30.3811 32.1023 30.5748 31.8648 30.5561 31.7773C30.5436 31.7336 30.5436 31.6836 30.5623 31.6711C30.6186 31.6461 30.6436 31.7961 30.5998 31.8711C30.5883 31.8922 30.5823 31.9158 30.5823 31.9398C30.5823 31.9639 30.5883 31.9875 30.5998 32.0086C30.6436 32.0898 30.5998 32.2398 30.5186 32.2898C30.4873 32.3086 30.5061 32.3523 30.5936 32.4148C30.7186 32.5023 30.7186 32.5148 30.7186 32.9148C30.7186 33.2523 30.7311 33.3398 30.7936 33.3961C30.8561 33.4586 30.8686 33.4586 30.8686 33.3961C30.8686 33.3336 30.9936 33.2461 31.0873 33.2461C31.1186 33.2461 31.2998 33.4023 31.4936 33.5898C31.6873 33.7773 31.8936 33.9461 31.9498 33.9523L32.0873 33.9773C32.1061 33.9773 32.1936 33.9586 32.2811 33.9148V33.9211ZM30.1998 32.2898C30.1998 32.1836 29.9748 32.0648 29.7061 32.0398C29.4873 32.0086 29.4873 32.0148 29.4873 32.1211C29.4873 32.2086 29.5186 32.2461 29.6748 32.3086C29.9123 32.4148 30.1998 32.4023 30.1998 32.2898Z" fill="#FFB700"/>
<path d="M30.4437 32.2774C30.5562 32.1774 30.6062 32.0649 30.5374 32.0649C30.4624 32.0649 30.2624 32.2399 30.2624 32.3149C30.2624 32.4149 30.2999 32.4087 30.4499 32.2774H30.4437ZM30.2124 31.9587C30.2187 31.8962 30.1812 31.8587 30.0687 31.8024C29.8187 31.6962 29.5312 31.6399 29.4624 31.6962C29.3312 31.8024 29.4187 31.9399 29.6249 31.9649C29.7124 31.9712 29.8249 31.9962 29.8812 32.0212C30.0437 32.0837 30.1937 32.0524 30.2124 31.9587ZM30.2124 31.6274C30.2249 31.5462 30.1687 31.5149 29.7124 31.3524C29.3687 31.2274 29.2187 31.2899 29.3312 31.4962C29.3687 31.5649 29.4312 31.5962 29.5749 31.6212C29.6812 31.6337 29.8249 31.6649 29.8937 31.6899C30.0812 31.7524 30.1937 31.7274 30.2062 31.6274H30.2124ZM30.4374 31.3212C30.5062 31.2524 30.5624 31.1712 30.5624 31.1337C30.5624 31.0399 30.2937 31.2149 30.2562 31.3399C30.2187 31.4837 30.2874 31.4774 30.4437 31.3212H30.4374ZM30.2124 31.3024C30.2249 31.2024 30.0624 31.1149 29.7374 31.0462C29.4937 30.9899 29.3874 31.0212 29.4062 31.1337C29.4187 31.1962 29.4999 31.2399 29.7187 31.3087C30.0874 31.4212 30.1937 31.4212 30.2124 31.3024ZM30.5249 30.8399C30.9499 30.6524 30.9812 30.1837 30.5874 30.0587C30.4249 30.0087 30.3249 30.0399 30.2624 30.1462C30.2124 30.2337 30.2437 30.3837 30.3062 30.3837C30.3312 30.3837 30.3499 30.4149 30.3499 30.4462C30.3499 30.6149 29.7124 30.6837 29.4499 30.5524C29.3562 30.5087 29.3249 30.3837 29.3937 30.3837C29.4562 30.3837 29.4937 30.2587 29.4624 30.1774C29.4249 30.0524 29.2999 30.0149 29.1312 30.0649C28.7374 30.1649 28.7499 30.6274 29.1499 30.8149C29.5925 30.9773 30.0768 30.9861 30.5249 30.8399Z" fill="#FFB700"/>
<path d="M30.2687 30.4773C30.2937 30.4523 30.2812 30.4148 30.2437 30.3898C30.1562 30.3211 30.1624 30.2148 30.2562 30.0961C30.3312 30.0086 30.3374 29.8711 30.3624 28.5273C30.4062 26.2086 30.5812 24.4648 30.8062 24.0398C30.8999 23.8773 30.8874 23.8773 30.6499 24.0398C30.3383 24.2569 30.0868 24.5493 29.9187 24.8898C29.5312 25.6086 29.3999 26.5773 29.3999 28.6523C29.3999 29.8273 29.4062 29.9836 29.4749 30.0898C29.5374 30.2023 29.5374 30.2398 29.4999 30.3523C29.4687 30.4211 29.4562 30.4961 29.4687 30.5086C29.5562 30.5898 30.1812 30.5711 30.2687 30.4773ZM33.7749 28.2648C33.7937 28.2461 33.7624 28.1398 33.7124 28.0398C33.6374 27.8773 33.6062 27.8523 33.4999 27.8523C33.0001 27.8089 32.5128 27.6733 32.0624 27.4523C31.7437 27.3086 31.6249 27.2773 31.5937 27.3148C31.4937 27.4086 31.6562 27.6273 31.9062 27.7461C32.274 27.8787 32.6594 27.9566 33.0499 27.9773C33.2187 27.9773 33.2249 27.9773 33.1249 28.1211L33.0624 28.2211H33.2499L33.5624 28.2586C33.7499 28.3023 33.7499 28.3023 33.7749 28.2648Z" fill="#FFB700"/>
<path d="M35.75 29.3087C35.75 29.2462 35.5687 29.0899 35.3937 28.9837C35.25 28.9024 35.225 28.8962 35.225 28.9649C35.225 29.0649 35.1375 29.3212 35.1 29.3212C35.0812 29.3212 35.05 29.2712 35.0375 29.2149C35.0187 29.1524 34.95 29.0274 34.8812 28.9462L34.7562 28.7899L34.6687 28.9337C34.5812 29.0712 34.425 29.2024 34.3562 29.2024C34.3437 29.2024 34.3375 29.1274 34.3562 29.0462C34.3625 28.9462 34.3562 28.8712 34.325 28.8587C34.3 28.8399 34.275 28.8462 34.275 28.8712C34.275 28.9212 34.0625 29.1587 34.025 29.1587C34 29.1587 33.975 29.0962 33.9625 29.0087L33.9125 28.7087C33.9 28.6337 33.9312 28.6837 33.975 28.8337L34.075 29.0899L34.175 28.9337C34.2203 28.8691 34.2541 28.7972 34.275 28.7212C34.275 28.6899 34.2937 28.6774 34.3187 28.6899C34.3437 28.7024 34.375 28.8087 34.3875 28.9212L34.4187 29.1337L34.5312 29.0087C34.5901 28.946 34.6444 28.8792 34.6937 28.8087C34.7375 28.7337 34.7437 28.7337 34.8375 28.8087C34.8875 28.8587 34.9687 28.9649 35.0187 29.0524C35.0687 29.1399 35.1125 29.2024 35.1187 29.1962L35.1562 28.9962L35.1812 28.8087C35.1875 28.7774 35.5187 28.9962 35.6437 29.1024C35.7187 29.1712 35.7937 29.2212 35.8062 29.2087C35.8187 29.1962 35.8312 29.0962 35.8312 28.9774C35.8312 28.8024 35.8125 28.7524 35.7062 28.6587C35.5812 28.5462 35.5812 28.5462 35.5312 28.6274C35.4687 28.7337 35.4 28.7337 35.4 28.6274C35.4 28.5524 35.1625 28.2587 35.1062 28.2587C35.0875 28.2587 35.0375 28.3212 34.9937 28.4024C34.95 28.4837 34.9 28.5462 34.8875 28.5462C34.825 28.5462 34.4937 28.1712 34.4937 28.1087C34.4937 28.0587 34.5187 28.0712 34.575 28.1587C34.6308 28.2408 34.6958 28.3163 34.7687 28.3837C34.8937 28.4962 34.9437 28.4712 34.9937 28.2524C35.0125 28.1899 35.0375 28.1399 35.0562 28.1399C35.1062 28.1399 35.3937 28.4462 35.4312 28.5462L35.475 28.6462L35.5062 28.5337C35.5437 28.3962 35.5875 28.3962 35.65 28.5212C35.675 28.5712 35.8 28.6837 35.925 28.7587L36.1562 28.9087L36.2 28.7587C36.225 28.6774 36.2625 28.6337 36.275 28.6587C36.3 28.6899 36.2375 28.9399 36.1937 28.9899C36.1937 28.9962 36.1125 28.9524 36.0312 28.8962L35.875 28.7837V28.9837C35.875 29.0899 35.8625 29.2212 35.85 29.2712C35.8187 29.3712 35.7437 29.3962 35.7437 29.3087H35.75ZM34.5937 27.7212C34.3187 27.4962 34.2812 27.4462 34.2812 27.3337L34.2875 27.2212L34.3062 27.3274C34.3187 27.3899 34.3937 27.4899 34.4812 27.5649L34.6437 27.6899L34.7375 27.5774C34.7937 27.5149 34.8375 27.4399 34.8375 27.4149C34.8375 27.3399 34.85 27.3462 35.0375 27.5087C35.2 27.6524 35.2062 27.6524 35.225 27.5587C35.2437 27.5087 35.2375 27.4087 35.225 27.3399C35.1625 27.1524 35.175 27.1274 35.2562 27.2399L35.4062 27.4149C35.4687 27.4837 35.475 27.4837 35.5 27.3962C35.5187 27.3399 35.5312 27.2462 35.5312 27.1837V27.0649L35.675 27.2337C35.8187 27.3962 35.8312 27.4024 35.8687 27.3212C35.9 27.2774 35.9187 27.1712 35.9187 27.0899C35.9187 26.9774 35.9312 26.9524 35.9562 26.9899C36.0062 27.0649 35.975 27.2524 35.8875 27.4149L35.825 27.5399L35.7437 27.4087C35.6375 27.2462 35.6 27.2462 35.5375 27.4212C35.475 27.5899 35.4312 27.6024 35.3687 27.4712C35.3312 27.3899 35.3187 27.4024 35.2937 27.5774L35.2625 27.7649L35.075 27.6212L34.8875 27.4774L34.7937 27.5712C34.75 27.6274 34.7125 27.6962 34.7125 27.7212C34.7125 27.7837 34.6625 27.7837 34.5937 27.7212ZM37.0312 26.8712C36.9375 26.7837 36.8687 26.6962 36.8812 26.6837C36.9 26.6649 36.9125 26.6587 36.9187 26.6712C36.9792 26.7357 37.0418 26.7982 37.1062 26.8587C37.3187 27.0837 37.275 27.0899 37.0375 26.8712H37.0312ZM33.7812 26.5337C33.6937 26.4087 33.7 26.3337 33.8125 26.1962C33.8875 26.1024 33.925 26.0899 34.0625 26.1087C34.1562 26.1149 34.35 26.1962 34.4937 26.2837C34.7015 26.4078 34.9392 26.4726 35.1812 26.4712L35.075 26.2962C34.9375 26.0899 34.9375 26.0649 35.1 26.1899C35.2625 26.3212 35.4562 26.3587 35.8937 26.3462L36.1062 26.3399L35.9812 26.2149C35.8125 26.0462 35.8625 26.0274 36.0562 26.1962C36.2312 26.3524 36.225 26.3649 35.8437 26.4024C35.6848 26.4185 35.5242 26.4079 35.3687 26.3712C35.1562 26.3087 35.1437 26.3149 35.1875 26.3837C35.2125 26.4274 35.25 26.4587 35.2687 26.4587C35.2937 26.4587 35.3125 26.4837 35.3125 26.5087C35.3125 26.5899 34.85 26.5149 34.625 26.4087C34.125 26.1524 34.0625 26.1274 33.9375 26.1649C33.9042 26.1777 33.8738 26.1971 33.848 26.2217C33.8223 26.2464 33.8017 26.276 33.7875 26.3087C33.7062 26.5149 34 26.6774 34.1187 26.4962C34.1562 26.4399 34.15 26.4087 34.0875 26.3399C34 26.2524 34.0125 26.2399 34.125 26.2774C34.2062 26.3087 34.2125 26.5024 34.1375 26.5774C34.0562 26.6587 33.8562 26.6399 33.7812 26.5337Z" fill="black"/>
<path d="M35.7749 26.0273C35.7124 25.9648 35.7624 25.9523 36.0437 25.946C36.3937 25.9398 36.6062 25.8835 36.8562 25.721C37.0562 25.596 37.1124 25.621 36.9187 25.7523C36.7499 25.8773 36.4812 25.9648 36.2124 25.9898L35.8937 26.0335C35.8437 26.046 35.7874 26.0398 35.7687 26.0273H35.7749Z" fill="black"/>
</g>
</g>
<defs>
<clipPath id="clip0_4003_3129">
<rect y="0.239746" width="60" height="60" rx="30" fill="white"/>
</clipPath>
<clipPath id="clip1_4003_3129">
<rect width="40" height="40" fill="white" transform="translate(10 10.2397)"/>
</clipPath>
</defs>
</svg>
