<svg width="25" height="26" viewBox="0 0 25 26" fill="none" xmlns="http://www.w3.org/2000/svg">
<g clip-path="url(#clip0_4003_9301)">
<g clip-path="url(#clip1_4003_9301)">
<g clip-path="url(#clip2_4003_9301)">
<path d="M0 0.699951H25V25.7H0V0.699951Z" fill="#EE1C25"/>
<path d="M0 0.699951H25V17.365H0V0.699951Z" fill="#0B4EA2"/>
<path d="M0 0.699951H25V9.03491H0V0.699951Z" fill="white"/>
<path d="M9.92188 20.0115C7.68066 18.9373 4.47754 16.7888 4.47754 12.5505C4.47754 8.31226 4.67773 6.38843 4.67773 6.38843H15.166C15.166 6.38843 15.3711 8.31226 15.3711 12.5505C15.3711 16.7888 12.1582 18.9324 9.92188 20.0115Z" fill="white"/>
<path d="M9.92188 19.45C7.86621 18.4587 4.92676 16.4958 4.92676 12.6042C4.92676 8.71265 5.1123 6.94995 5.1123 6.94995H14.7314C14.7314 6.94995 14.917 8.71753 14.917 12.6042C14.917 16.491 11.9775 18.4636 9.92188 19.45Z" fill="#EE1C25"/>
<path d="M10.3613 11.5886C10.918 11.5984 12.0068 11.6179 12.9736 11.2957C12.9736 11.2957 12.9443 11.6375 12.9443 12.0427C12.9443 12.448 12.9736 12.7898 12.9736 12.7898C12.1236 12.5556 11.2421 12.4568 10.3613 12.4968V14.6453H9.48242V12.4968C8.60167 12.4568 7.72011 12.5556 6.87012 12.7898C6.87012 12.7898 6.89941 12.448 6.89941 12.0427C6.89941 11.6375 6.87012 11.2957 6.87012 11.2957C7.8418 11.6179 8.92578 11.5984 9.48242 11.5886V10.2361C8.78212 10.2189 8.08391 10.3196 7.41699 10.5339C7.41699 10.5339 7.44141 10.1921 7.44141 9.78687C7.44141 9.38159 7.41699 9.03491 7.41699 9.03491C8.24707 9.31323 8.97461 9.33765 9.47754 9.32788C9.45313 8.47827 9.2041 7.40405 9.2041 7.40405C9.2041 7.40405 9.7168 7.44312 9.92188 7.44312C10.127 7.44312 10.6396 7.40405 10.6396 7.40405C10.6396 7.40405 10.3906 8.47827 10.3613 9.33276C11.0615 9.35339 11.76 9.25431 12.4268 9.03979C12.4268 9.03979 12.4023 9.38159 12.4023 9.78687C12.4023 10.1921 12.4268 10.5339 12.4268 10.5339C11.5967 10.2556 10.8691 10.2361 10.3613 10.241V11.5886Z" fill="white"/>
<path d="M9.92188 14.4109C8.88672 14.4109 8.33008 15.8464 8.33008 15.8464C8.33008 15.8464 8.02246 15.1628 7.17773 15.1628C6.60645 15.1628 6.18652 15.6755 5.91797 16.1492C6.95801 17.7996 8.61816 18.8201 9.92188 19.45C11.2256 18.8201 12.8857 17.7996 13.9258 16.1443C13.6572 15.6755 13.2373 15.1677 12.666 15.1677C11.8213 15.1677 11.5137 15.8513 11.5137 15.8513C11.5137 15.8513 10.957 14.4109 9.92188 14.4109Z" fill="#0B4EA2"/>
</g>
</g>
</g>
<defs>
<clipPath id="clip0_4003_9301">
<rect y="0.699951" width="25" height="25" rx="12.5" fill="white"/>
</clipPath>
<clipPath id="clip1_4003_9301">
<rect width="25" height="25" fill="white" transform="translate(0 0.699951)"/>
</clipPath>
<clipPath id="clip2_4003_9301">
<rect width="25" height="25" fill="white" transform="translate(0 0.699951)"/>
</clipPath>
</defs>
</svg>
