<svg width="25" height="25" viewBox="0 0 25 25" fill="none" xmlns="http://www.w3.org/2000/svg">
<g clip-path="url(#clip0_2003_2174)">
<path d="M4 4.73975H5.55848C6.2542 4.73975 6.60206 4.73975 6.86395 4.9285C7.12584 5.11726 7.23584 5.44727 7.45585 6.10729L8 7.73975" stroke="white" stroke-linecap="round"/>
<path d="M18 17.7397H8.55091C8.40471 17.7397 8.33162 17.7397 8.27616 17.7335C7.68857 17.6677 7.28605 17.1093 7.40945 16.531C7.42109 16.4765 7.44421 16.4071 7.49044 16.2684V16.2684C7.54177 16.1144 7.56743 16.0374 7.59579 15.9695C7.88607 15.2739 8.54277 14.8006 9.29448 14.7452C9.3679 14.7397 9.44906 14.7397 9.61137 14.7397H15" stroke="white" stroke-linecap="round" stroke-linejoin="round"/>
<path d="M14.6787 14.7397H11.6376C10.3584 14.7397 9.71875 14.7397 9.21781 14.4094C8.71687 14.0791 8.46492 13.4912 7.961 12.3154L7.79218 11.9215C6.98269 10.0327 6.57794 9.08827 7.02255 8.41401C7.46715 7.73975 8.49464 7.73975 10.5496 7.73975H15.8305C18.1295 7.73975 19.279 7.73975 19.7126 8.48686C20.1462 9.23397 19.5758 10.232 18.4352 12.2282L18.1517 12.7243C17.5897 13.7077 17.3088 14.1994 16.8432 14.4696C16.3776 14.7397 15.8113 14.7397 14.6787 14.7397Z" stroke="white" stroke-linecap="round"/>
<circle cx="17.5" cy="20.2397" r="1" fill="white"/>
<circle cx="9.5" cy="20.2397" r="1" fill="white"/>
</g>
<defs>
<clipPath id="clip0_2003_2174">
<rect width="24" height="24" fill="white" transform="translate(0.5 0.239746)"/>
</clipPath>
</defs>
</svg>
